<?xml version="1.0" standalone="no"?>
<!DOCTYPE svg PUBLIC "-//W3C//DTD SVG 1.1//EN" "http://www.w3.org/Graphics/SVG/1.1/DTD/svg11.dtd" >
<svg xmlns="http://www.w3.org/2000/svg">
<metadata></metadata>
<defs>
<font id="lolita_mediummedium" horiz-adv-x="821" >
<font-face units-per-em="2048" ascent="1536" descent="-512" />
<missing-glyph horiz-adv-x="430" />
<glyph horiz-adv-x="2048" />
<glyph horiz-adv-x="2048" />
<glyph unicode="&#xd;" horiz-adv-x="2048" />
<glyph unicode=" "  horiz-adv-x="430" />
<glyph unicode="&#x09;" horiz-adv-x="430" />
<glyph unicode="&#xa0;" horiz-adv-x="430" />
<glyph unicode="!" horiz-adv-x="460" d="M131 74q0 43 24.5 67.5t73.5 24.5q101 0 101 -92q0 -42 -24.5 -67t-76.5 -25q-49 0 -73.5 25t-24.5 67zM143 1325q28 21 86 21q93 0 93 -41l-25 -938h-78q-34 0 -46.5 12.5t-14.5 44.5z" />
<glyph unicode="&#x22;" horiz-adv-x="735" d="M115 1364q31 14 73 14q41 0 59.5 -11.5t18.5 -37.5q0 -44 -8.5 -200t-15.5 -246q-10 -6 -49 -6q-33 0 -48.5 14t-19.5 49q-10 110 -10 424zM471 1364q31 14 74 14q41 0 59.5 -11.5t18.5 -37.5q0 -43 -8.5 -198t-16.5 -248q-10 -6 -49 -6q-33 0 -48.5 14t-19.5 49 q-10 110 -10 424z" />
<glyph unicode="#" horiz-adv-x="1226" d="M90 457q0 41 9.5 55t35.5 14h209l49 320h-223q-8 24 -8 53q0 42 9.5 56t35.5 14h207l49 319q8 45 67 45q44 0 64 -26l-53 -338h223l49 319q8 45 68 45q42 0 65 -26l-53 -338h235q11 -28 11 -56q0 -40 -10 -53.5t-37 -13.5h-218l-51 -320h236q6 -36 6 -57q0 -40 -9.5 -54 t-35.5 -14h-215l-55 -354q-5 -47 -66 -47q-41 0 -66 29l58 372h-221l-54 -354q-4 -26 -20.5 -36.5t-46.5 -10.5q-44 0 -66 29l58 372h-230q-6 36 -6 56zM475 526h219l49 320h-221z" />
<glyph unicode="$" horiz-adv-x="919" d="M100 80q0 24 8 50.5t17 37.5q105 -37 287 -37q125 0 185 55.5t60 155.5q0 57 -30.5 101.5t-79.5 74t-107.5 57.5t-117.5 61t-108 74t-79.5 107t-30.5 150q0 179 103.5 279t306.5 100q58 0 152.5 -6.5t115.5 -6.5q11 -22 11 -61q0 -43 -10.5 -60.5t-41.5 -17.5 q-29 0 -105 4t-110 4q-120 0 -180.5 -60t-60.5 -169q0 -52 24 -94t63 -69t88.5 -54t102 -49t102 -54.5t88.5 -70t63 -95.5t24 -131q0 -173 -103 -270.5t-317 -97.5q-159 0 -239.5 25t-80.5 67zM408 -346l12 256q26 6 57 6q28 0 39.5 -7t11.5 -24v-252q-24 -12 -59 -12 q-36 0 -48.5 8t-12.5 25zM408 1452v252q24 12 59 12q36 0 48.5 -8t12.5 -25l-10 -256q-30 -6 -57 -6q-30 0 -41.5 7t-11.5 24z" />
<glyph unicode="%" horiz-adv-x="1669" d="M82 967q0 184 85 281.5t224 97.5q138 0 221.5 -96.5t83.5 -280.5q0 -192 -83.5 -291.5t-221.5 -99.5q-139 0 -224 99.5t-85 289.5zM223 963q0 -273 168 -273q170 0 170 273q0 270 -170 270q-168 0 -168 -270zM385 39l752 1264q20 30 57 30q57 0 86 -37l-754 -1263 q-16 -33 -57 -33q-27 0 -51 11.5t-33 27.5zM971 379q0 184 85.5 280.5t223.5 96.5q139 0 223 -96t84 -281q0 -193 -84 -292t-223 -99q-138 0 -223.5 100t-85.5 291zM1114 373q0 -141 45.5 -207t124.5 -66q168 0 168 273q0 270 -168 270q-170 0 -170 -270z" />
<glyph unicode="&#x26;" horiz-adv-x="1200" d="M74 336q0 268 284 364q-87 120 -116 190.5t-29 156.5q0 63 22 117t63.5 94.5t105 64t141.5 23.5q153 0 237 -83t84 -214t-69.5 -222.5t-227.5 -169.5q55 -66 155 -191.5t120 -150.5q102 145 137 351h80q53 0 53 -48q0 -80 -48 -197.5t-132 -217.5l135 -166 q-16 -23 -44 -39t-56 -16q-48 0 -76 38l-64 80q-148 -112 -329 -112q-206 0 -316 97t-110 251zM244 354q0 -109 72.5 -172t203.5 -63q119 0 225 86q-36 46 -100.5 127t-118 148.5t-100.5 127.5q-96 -44 -139 -105.5t-43 -148.5zM369 1036q0 -73 26.5 -130.5t106.5 -162.5 q113 64 165 134.5t52 158.5q0 84 -49 131t-125 47q-78 0 -127 -47t-49 -131z" />
<glyph unicode="'" horiz-adv-x="401" d="M127 1364q31 14 72 14t59 -11.5t18 -37.5q0 -44 -8.5 -200t-15.5 -246q-8 -6 -49 -6q-33 0 -48.5 14t-19.5 49q-8 132 -8 424z" />
<glyph unicode="(" horiz-adv-x="565" d="M92 633q0 141 26 276t65.5 233t85.5 174.5t88 115t71 38.5q24 0 42.5 -16t25.5 -32l6 -15q-22 -17 -57.5 -71.5t-78.5 -147.5t-73.5 -241.5t-30.5 -313.5t30.5 -313.5t73.5 -241.5t78.5 -147.5t57.5 -71.5q-1 -3 -2.5 -7t-7.5 -15t-14 -19.5t-21.5 -15.5t-28.5 -7 q-37 0 -92.5 63.5t-110.5 169t-94 269t-39 336.5z" />
<glyph unicode=")" horiz-adv-x="565" d="M63 -141q17 13 43 47.5t61.5 104t65.5 154.5t51 209.5t21 258.5t-21 258.5t-51 209.5t-65.5 154.5t-61.5 104t-43 47.5q2 7 6.5 17.5t24 28t43.5 17.5q29 0 71 -38.5t88 -115t85.5 -174.5t65.5 -233t26 -276q0 -173 -39 -336.5t-94 -269t-110.5 -169t-92.5 -63.5 q-24 0 -42.5 16t-24.5 32z" />
<glyph unicode="*" horiz-adv-x="921" d="M98 1184q0 25 13.5 53t35.5 33q145 -56 188.5 -78.5t43.5 -42.5t-17 -41q-12 0 -124 14q-83 13 -111.5 26.5t-28.5 35.5zM203 854q110 124 139 153t43 29q21 0 45 -28q-46 -97 -108 -199q-14 -29 -35 -29q-24 0 -51 22t-33 52zM399 1452q0 31 64 31q44 0 59 -23l-24 -235 q-6 -25 -37 -25q-19 0 -31 4q-3 24 -12 80t-14 98t-5 70zM502 999q0 13 12.5 26t28.5 19q25 -25 52.5 -51.5t43 -41.5t32 -31t24 -24.5t14.5 -17.5t9.5 -15t2.5 -11q0 -22 -28 -45t-54 -23h-14q-77 115 -100 157t-23 58zM539 1161q7 4 20 11q182 99 215 102q19 0 33 -28.5 t14 -53.5q0 -19 -8 -35q-183 -51 -221 -51q-28 0 -38 12.5t-15 42.5z" />
<glyph unicode="+" horiz-adv-x="1064" d="M100 631q0 40 10.5 54.5t36.5 14.5h318v349q0 22 65 22q68 0 68 -22v-349h358q7 -21 7 -55q0 -41 -9 -55.5t-34 -14.5h-322v-342q0 -12 -13.5 -18t-54.5 -6q-39 0 -52 6t-13 18v342h-354q-11 33 -11 56z" />
<glyph unicode="," horiz-adv-x="403" d="M37 -297l123 295q-27 12 -43.5 37t-16.5 55q0 43 29 73t72 30q41 0 71.5 -30.5t30.5 -72.5q0 -37 -23.5 -94t-106.5 -231q-7 -13 -10.5 -20.5t-9 -19.5t-10.5 -22q-13 -31 -43 -31q-17 0 -36 9.5t-27 21.5z" />
<glyph unicode="-" d="M113 602q0 49 10.5 64.5t40.5 15.5h536q11 -38 11 -64q0 -45 -12 -62t-40 -17h-536q-10 35 -10 63z" />
<glyph unicode="." horiz-adv-x="401" d="M100 88q0 43 30 74t71 31q43 0 73.5 -31t30.5 -74q0 -41 -30.5 -70.5t-73.5 -29.5q-41 0 -71 29.5t-30 70.5z" />
<glyph unicode="/" horiz-adv-x="833" d="M53 -166l596 1610q16 39 49 39q24 0 46.5 -11.5t35.5 -27.5l-594 -1610q-16 -39 -49 -39q-49 0 -84 39z" />
<glyph unicode="0" horiz-adv-x="1140" d="M106 676q0 334 120 502t341 168q226 0 347.5 -167t121.5 -501q0 -347 -121.5 -518.5t-347.5 -171.5q-221 0 -341 172.5t-120 515.5zM289 674q0 -289 75 -420t216 -131q286 0 286 551q0 146 -20 251t-59 166.5t-90.5 90t-118.5 28.5q-141 0 -215 -125t-74 -411z" />
<glyph unicode="1" horiz-adv-x="870" d="M90 1270q0 15 8 63q35 0 195.5 6.5t191.5 6.5q44 0 60 -8.5t16 -26.5v-1180h244q6 -36 6 -57q0 -43 -10 -58.5t-37 -15.5h-653q-11 33 -11 59q0 41 11.5 56.5t38.5 15.5h237v1071q-124 -8 -246 -8q-31 0 -41 17t-10 59z" />
<glyph unicode="2" horiz-adv-x="968" d="M94 113q0 78 32 149.5t83 127t112.5 108t123 104t112.5 103.5t83 116.5t32 134.5q0 123 -63 184.5t-181 61.5q-46 0 -135.5 -4t-120.5 -4t-41 17t-10 61q0 37 8 61l112 7q112 6 203 6q200 0 304 -97.5t104 -271.5q0 -84 -31.5 -161.5t-82 -137.5t-111.5 -115.5 t-122.5 -104.5t-112 -94.5t-82 -96t-31.5 -99.5q0 -25 4 -33h575q12 -28 12 -61q0 -74 -61 -74h-698q-17 57 -17 113z" />
<glyph unicode="3" horiz-adv-x="970" d="M106 80q0 24 7.5 48.5t17.5 35.5q12 -5 35 -11.5t98 -18t156 -11.5q140 0 211 67t71 193q0 225 -305 225q-26 0 -62.5 -3t-43.5 -3q-39 0 -39 45v37l348 393q41 45 54.5 68t13.5 49h-510q-29 0 -40.5 16t-11.5 62q0 28 11 61h665q40 0 56 -17.5t16 -66.5 q0 -56 -23.5 -104.5t-72.5 -104.5l-291 -338q34 3 55 3q164 0 261.5 -83.5t97.5 -236.5q0 -190 -113.5 -293.5t-341.5 -103.5q-159 0 -239.5 25t-80.5 67z" />
<glyph unicode="4" horiz-adv-x="1056" d="M63 440q0 45 33 99l494 796q35 2 98 2q67 0 92 -10.5t25 -36.5v-784h178q8 -48 8 -55q0 -39 -10 -53.5t-35 -14.5h-141v-352q0 -15 -17 -23t-67 -8t-67 8t-17 23v352h-553q-21 16 -21 57zM221 506h416v661z" />
<glyph unicode="5" horiz-adv-x="962" d="M94 80q0 24 7.5 48.5t17.5 35.5q12 -5 35 -11.5t99 -18t157 -11.5q138 0 209 67.5t71 192.5q0 116 -81 175.5t-224 59.5h-235l32 715h643q9 -54 9 -61q0 -46 -11.5 -62t-38.5 -16h-458l-23 -449h125q216 0 328 -89t112 -265q0 -192 -113 -297.5t-341 -105.5 q-159 0 -239.5 25t-80.5 67z" />
<glyph unicode="6" horiz-adv-x="1052" d="M106 639q0 344 138.5 525.5t396.5 181.5q84 0 158.5 -6.5t83.5 -6.5q10 -30 10 -61q0 -43 -11 -60.5t-42 -17.5q-10 0 -68 4t-117 4q-174 0 -270.5 -121.5t-103.5 -396.5q113 98 286 98q189 0 295.5 -100.5t106.5 -280.5q0 -183 -110 -298t-306 -115q-222 0 -334.5 154.5 t-112.5 496.5zM283 557q4 -127 24 -214t56 -136t81.5 -69.5t108.5 -20.5q120 0 183 78.5t63 201.5t-64.5 197t-191.5 74q-149 0 -260 -111z" />
<glyph unicode="7" horiz-adv-x="913" d="M76 1272q0 37 8 61h715q31 0 44 -13.5t13 -53.5q0 -34 -12.5 -75.5t-48.5 -125.5l-439 -1018q-11 -28 -28.5 -40.5t-51.5 -12.5q-63 0 -96 29l455 1067q29 71 29 104h-539q-28 0 -38.5 16t-10.5 62z" />
<glyph unicode="8" horiz-adv-x="1058" d="M98 358q0 119 65.5 206.5t164.5 127.5q-94 50 -146.5 121t-52.5 182q0 157 104.5 254t288.5 97q191 0 301.5 -97t110.5 -256q0 -117 -60.5 -199t-156.5 -122q55 -23 95.5 -48t76.5 -62t55 -88.5t19 -115.5q0 -160 -119 -265t-320 -105q-203 0 -314.5 104t-111.5 266z M268 362q0 -104 69.5 -171.5t186.5 -67.5q114 0 185 68t71 171q0 44 -18.5 81t-38 59.5t-70.5 49.5t-74.5 36.5t-91.5 35.5q-2 1 -3.5 2t-4 1.5t-4.5 1.5q-33 -13 -65 -34t-66 -53t-55 -79t-21 -101zM301 985q0 -55 21.5 -97t67 -73t86.5 -49.5t110 -42.5q33 14 63 34 t59.5 50t47.5 73.5t18 94.5q0 101 -68 168t-176 67q-101 0 -165 -63t-64 -162z" />
<glyph unicode="9" horiz-adv-x="1052" d="M84 932q0 183 109.5 298.5t306.5 115.5q222 0 335 -155t113 -497q0 -352 -144 -529t-384 -177q-84 0 -162.5 6t-87.5 6q-8 28 -8 63q0 43 9.5 60.5t39.5 17.5q12 0 70 -4t116 -4q86 0 151 27.5t114 87.5t76.5 160t31.5 241q-111 -96 -285 -96q-192 0 -296.5 101.5 t-104.5 277.5zM252 938q0 -122 65.5 -196t192.5 -74q156 0 260 108q-5 167 -39.5 266t-89.5 137t-139 38q-123 0 -186.5 -78.5t-63.5 -200.5z" />
<glyph unicode=":" horiz-adv-x="456" d="M127 88q0 43 29.5 74t70.5 31q43 0 74 -31t31 -74q0 -41 -31 -70.5t-74 -29.5q-41 0 -70.5 29.5t-29.5 70.5zM127 940q0 43 29.5 72.5t70.5 29.5q43 0 74 -30t31 -72q0 -41 -31 -71.5t-74 -30.5q-41 0 -70.5 30.5t-29.5 71.5z" />
<glyph unicode=";" horiz-adv-x="503" d="M92 -297l127 295q-27 12 -45 37t-18 55q0 42 30 72.5t72 30.5q43 0 72.5 -30t29.5 -73q0 -40 -28 -107.5t-129 -279.5q-16 -31 -45 -31q-17 0 -37 9.5t-29 21.5zM156 940q0 42 30 72t72 30q43 0 72.5 -29.5t29.5 -72.5q0 -42 -30 -72t-72 -30q-41 0 -71.5 30.5 t-30.5 71.5z" />
<glyph unicode="&#x3c;" horiz-adv-x="966" d="M86 606q0 52 12 76l645 330q19 8 39 8q51 0 58 -100l-621 -310l596 -295q16 -6 22.5 -16.5t6.5 -34.5q0 -22 -13.5 -44.5t-31.5 -35.5l-666 338q-47 23 -47 84z" />
<glyph unicode="=" horiz-adv-x="1120" d="M131 430q0 42 9 56t36 14h807q10 -25 10 -56q0 -40 -10.5 -53.5t-36.5 -13.5h-809q-6 36 -6 53zM131 840q0 42 9 55.5t36 13.5h807q10 -25 10 -55q0 -40 -10.5 -54t-36.5 -14h-809q-6 36 -6 54z" />
<glyph unicode="&#x3e;" horiz-adv-x="962" d="M121 946q0 45 45 80l665 -338q50 -26 50 -84q0 -38 -17 -76l-645 -329q-18 -11 -35 -11q-28 0 -42.5 30t-16.5 75l620 307l-595 297q-16 6 -22.5 16.5t-6.5 32.5z" />
<glyph unicode="?" horiz-adv-x="899" d="M86 1272q0 37 8 61q23 0 139 6.5t177 6.5q191 0 291 -93.5t100 -271.5q0 -72 -19.5 -132.5t-51 -102t-69.5 -78.5t-75.5 -71t-69 -69.5t-51 -83.5t-19.5 -104h-79q-58 0 -58 55q0 73 34 132t82 102l96 86t82 104.5t34 136.5q0 122 -64 184t-180 62q-43 0 -139.5 -4 t-116.5 -4q-31 0 -41 17t-10 61zM281 74q0 43 25 67.5t75 24.5q100 0 100 -92q0 -42 -25 -67t-75 -25q-49 0 -74.5 25t-25.5 67z" />
<glyph unicode="@" horiz-adv-x="1634" d="M96 621q0 376 200.5 581t539.5 205q332 0 523 -190t191 -508q0 -523 -336 -523q-82 0 -137.5 34t-79.5 95q-117 -110 -262 -110q-115 0 -177 60t-62 157q0 107 68.5 165t209.5 58q93 0 193 -31v205q0 77 -36.5 106t-111.5 29q-34 0 -108.5 -6t-104.5 -6q-25 0 -34 13.5 t-9 45.5q0 26 8 50q35 0 122.5 7t135.5 7q142 0 208.5 -52.5t66.5 -185.5v-407q0 -121 121 -121q89 0 139.5 103t50.5 307q0 261 -157.5 418t-421.5 157q-273 0 -439 -173.5t-166 -489.5q0 -133 29 -240.5t80 -181.5t122 -123.5t153.5 -72.5t177.5 -23q90 0 162 15t99 29 l27 15q4 -3 10.5 -8t17.5 -26.5t11 -47.5q0 -18 -19 -35t-57 -31.5t-103 -23t-148 -8.5q-119 0 -222.5 27.5t-191.5 87t-150.5 147.5t-97.5 215.5t-35 284.5zM627 434q0 -121 141 -121q54 0 97.5 20.5t101.5 69.5v125q-84 31 -168 31q-172 0 -172 -125z" />
<glyph unicode="A" horiz-adv-x="1054" d="M31 16l405 1301q50 16 92 16q50 0 71.5 -10t29.5 -35l377 -1196q10 -36 10 -53q0 -21 -12 -30t-41 -9h-109l-127 424h-410l-116 -387q-6 -26 -21 -36.5t-47 -10.5q-70 0 -102 26zM346 539h348l-172 587z" />
<glyph unicode="B" horiz-adv-x="1085" d="M150 98v1153q0 23 9.5 36.5t41.5 26t100 18t178 5.5q247 0 366.5 -103t119.5 -284q0 -177 -138 -295q170 -87 170 -293q0 -173 -126.5 -270.5t-370.5 -97.5q-132 0 -210.5 12t-109 34t-30.5 58zM322 147q74 -22 190 -22q145 0 227 66t82 184q0 223 -301 223 q-116 0 -198 -8v-443zM322 705q86 8 210 8q70 0 158 -15q45 49 70.5 104t25.5 134q0 130 -76.5 197t-226.5 67q-79 0 -161 -10v-485z" />
<glyph unicode="C" horiz-adv-x="954" d="M100 664q0 344 141 513t384 169q58 0 140 -6.5t105 -6.5q9 -27 9 -61q0 -43 -10.5 -60.5t-41.5 -17.5q-27 0 -90.5 4t-97.5 4q-177 0 -266.5 -130.5t-89.5 -412.5q0 -275 87.5 -401.5t258.5 -126.5q63 0 119 8.5t81 17.5l25 9q23 -32 23 -86q0 -39 -72.5 -65.5 t-202.5 -26.5q-246 0 -374 170t-128 506z" />
<glyph unicode="D" horiz-adv-x="1161" d="M150 98v1153q0 31 18.5 47t86 26.5t198.5 10.5q283 0 446.5 -169t163.5 -494q0 -170 -43 -300.5t-121.5 -212.5t-183.5 -123.5t-234 -41.5q-126 0 -201.5 14t-102.5 35.5t-27 54.5zM322 147q59 -18 176 -18q62 0 116.5 17t104 57.5t85 101.5t56.5 155t21 212 q0 138 -32 242t-90 164.5t-130.5 90t-159.5 29.5q-85 0 -147 -8v-1043z" />
<glyph unicode="E" horiz-adv-x="942" d="M154 49v1245q0 20 16.5 29.5t67.5 9.5h585q11 -33 11 -61q0 -45 -12 -61.5t-40 -16.5h-456v-487h442q8 -24 8 -56q0 -40 -10.5 -54.5t-34.5 -14.5h-405v-447h518q10 -20 10 -61q0 -43 -11 -58.5t-38 -15.5h-559q-92 0 -92 49z" />
<glyph unicode="F" horiz-adv-x="897" d="M154 31v1263q0 20 16.5 29.5t67.5 9.5h589q9 -27 9 -61q0 -46 -11 -62t-39 -16h-460v-498h444q10 -30 10 -55q0 -40 -10.5 -54t-34.5 -14h-409v-542q0 -16 -17 -23.5t-69 -7.5q-51 0 -68.5 8t-17.5 23z" />
<glyph unicode="G" horiz-adv-x="1095" d="M100 664q0 345 138 513.5t380 168.5q58 0 159 -6.5t124 -6.5q10 -30 10 -61q0 -43 -11 -60.5t-42 -17.5q-27 0 -109 4t-116 4q-350 0 -350 -543q0 -270 86.5 -403t240.5 -133q117 0 186.5 79.5t69.5 248.5q0 49 -4 65h-266q-8 20 -8 53q0 41 9.5 55.5t33.5 14.5h319 q37 0 53.5 -32.5t16.5 -125.5q0 -132 -31 -229t-89 -154t-132.5 -83.5t-169.5 -26.5q-238 0 -368 171.5t-130 504.5z" />
<glyph unicode="H" horiz-adv-x="1191" d="M154 31v1272q0 16 17 23t71 7q52 0 69 -7t17 -23v-598h536v598q0 16 17 23t71 7q52 0 69 -7t17 -23v-1272q0 -16 -17 -23.5t-69 -7.5q-53 0 -70.5 8t-17.5 23v551h-536v-551q0 -16 -17 -23.5t-69 -7.5q-53 0 -70.5 8t-17.5 23z" />
<glyph unicode="I" horiz-adv-x="481" d="M154 31v1272q0 16 17 23t71 7q52 0 69 -7t17 -23v-1272q0 -16 -17 -23.5t-69 -7.5q-53 0 -70.5 8t-17.5 23z" />
<glyph unicode="J" horiz-adv-x="479" d="M41 -145q56 71 86.5 171t30.5 214v1063q0 16 17 23t69 7t69 -7t17 -23v-1033q0 -110 -18.5 -203.5t-45.5 -149.5t-56 -87t-52 -31q-68 0 -117 56z" />
<glyph unicode="K" horiz-adv-x="1089" d="M154 31v1272q0 16 17 23t71 7q52 0 69 -7t17 -23v-1272q0 -16 -17 -23.5t-69 -7.5q-53 0 -70.5 8t-17.5 23zM399 674l478 659h110q39 0 39 -30q0 -24 -18 -50l-422 -571l454 -645q-18 -19 -53.5 -33t-68.5 -14q-27 0 -45 12t-39 45z" />
<glyph unicode="L" horiz-adv-x="856" d="M154 49v1254q0 16 17 23t69 7t69 -7t17 -23v-1168h489q8 -24 8 -61q0 -43 -10.5 -58.5t-36.5 -15.5h-530q-92 0 -92 49z" />
<glyph unicode="M" horiz-adv-x="1486" d="M127 31l61 1241q1 26 9 37.5t33.5 17.5t78.5 6q77 0 99 -11.5t30 -51.5l307 -1053l310 1053q6 28 14 39.5t32 17.5t77 6q54 0 80 -6t33.5 -17.5t8.5 -37.5l62 -1241q0 -15 -17.5 -23t-70.5 -8q-50 0 -67 8t-17 23l-51 1091l-297 -991q-9 -39 -32.5 -55.5t-72.5 -16.5 q-52 0 -73.5 15t-32.5 57l-299 993l-53 -1093q0 -15 -15 -23t-61 -8q-47 0 -61.5 7.5t-14.5 23.5z" />
<glyph unicode="N" horiz-adv-x="1179" d="M154 31v1245q0 35 18.5 46t81.5 11q57 0 78.5 -11t38.5 -48l501 -1024v1053q0 16 15.5 23t62.5 7t62.5 -7t15.5 -23v-1244q0 -36 -18.5 -47.5t-79.5 -11.5q-54 0 -74 11.5t-39 49.5l-510 1045v-1075q0 -15 -16 -23t-62 -8t-60.5 7.5t-14.5 23.5z" />
<glyph unicode="O" horiz-adv-x="1210" d="M100 676q0 330 136 500t368 170q231 0 368.5 -170.5t137.5 -499.5q0 -333 -138 -510.5t-368 -177.5q-231 0 -367.5 177t-136.5 511zM283 676q0 -147 24.5 -256t69.5 -172.5t101.5 -94t125.5 -30.5q68 0 124.5 30.5t102.5 94t71.5 173t25.5 255.5q0 145 -25.5 251 t-71.5 166.5t-102.5 88.5t-124.5 28q-70 0 -126 -28t-101 -88.5t-69.5 -166.5t-24.5 -251z" />
<glyph unicode="P" horiz-adv-x="1038" d="M152 31v1218q0 29 22.5 47t95 29.5t203.5 11.5q259 0 381.5 -111.5t122.5 -314.5q0 -184 -118 -296.5t-351 -112.5q-118 0 -184 20v-491q0 -16 -17 -23.5t-69 -7.5q-51 0 -68.5 8t-17.5 23zM324 645q57 -20 170 -20q151 0 226 75.5t75 206.5q0 145 -77 219t-241 74 q-81 0 -153 -12v-543z" />
<glyph unicode="Q" horiz-adv-x="1210" d="M100 676q0 330 136 500t368 170q231 0 368.5 -170.5t137.5 -499.5q0 -220 -63 -373.5t-175 -234.5l156 -297q-17 -17 -53 -30t-68 -13q-30 0 -45.5 10t-30.5 43l-108 219q-59 -12 -119 -12q-231 0 -367.5 177t-136.5 511zM283 676q0 -147 24.5 -256t69.5 -172.5 t101.5 -94t125.5 -30.5q68 0 124.5 30.5t102.5 94t71.5 173t25.5 255.5q0 145 -25.5 251t-71.5 166.5t-102.5 88.5t-124.5 28q-70 0 -126 -28t-101 -88.5t-69.5 -166.5t-24.5 -251z" />
<glyph unicode="R" horiz-adv-x="1087" d="M152 31v1222q0 17 5 28t23.5 22.5t52 18t94 11t146.5 4.5q259 0 381.5 -111.5t122.5 -314.5q0 -268 -219 -362l276 -514q-18 -18 -53.5 -31.5t-67.5 -13.5q-28 0 -43 11t-30 44l-238 463q-52 -6 -108 -6q-120 0 -168 18v-489q0 -16 -17 -23.5t-69 -7.5q-53 0 -70.5 8 t-17.5 23zM326 643q45 -18 170 -18q150 0 225.5 75.5t75.5 206.5q0 145 -78 219t-242 74q-56 0 -93.5 -3.5t-47.5 -6.5l-10 -4v-543z" />
<glyph unicode="S" horiz-adv-x="927" d="M100 80q0 24 8 50.5t17 37.5q105 -37 287 -37q125 0 185 55.5t60 155.5q0 57 -30.5 101.5t-79.5 74t-107.5 57.5t-117.5 61t-108 74t-79.5 107t-30.5 150q0 179 103.5 279t306.5 100q58 0 152.5 -6.5t115.5 -6.5q11 -22 11 -61q0 -43 -10.5 -60.5t-41.5 -17.5 q-29 0 -105 4t-110 4q-120 0 -180.5 -60t-60.5 -169q0 -52 24 -94t63 -69t88.5 -54t102 -49t102 -54.5t88.5 -70t63 -95.5t24 -131q0 -173 -103 -270.5t-317 -97.5q-159 0 -239.5 25t-80.5 67z" />
<glyph unicode="T" horiz-adv-x="913" d="M27 1257q0 45 11 60.5t40 15.5h801q10 -30 10 -61q0 -45 -11.5 -61.5t-39.5 -16.5h-291v-1163q0 -15 -17.5 -23t-70.5 -8q-51 0 -67.5 7.5t-16.5 23.5v1163h-338q-10 23 -10 63z" />
<glyph unicode="U" horiz-adv-x="1161" d="M145 438v865q0 16 17 23t69 7t69 -7t17 -23v-869q0 -154 70.5 -232.5t192.5 -78.5q118 0 191 79t73 230v871q0 16 17 23t69 7t69 -7t17 -23v-867q0 -222 -116.5 -335t-319.5 -113q-209 0 -322 112t-113 338z" />
<glyph unicode="V" horiz-adv-x="1050" d="M31 1313q46 22 110 22q31 0 49 -12.5t27 -42.5l315 -1073l332 1126h99q28 0 39.5 -8.5t11.5 -28.5q0 -11 -17 -67l-376 -1182q-7 -26 -29.5 -36.5t-67.5 -10.5h-84z" />
<glyph unicode="W" horiz-adv-x="1515" d="M63 1317q53 16 99 16q30 0 45 -13t18 -44l185 -1122l260 1085q40 16 96 16q49 0 71 -12.5t27 -40.5l244 -1046l190 1177h93q33 0 44 -9.5t11 -35.5q0 -25 -16 -110l-197 -1090q-6 -43 -33.5 -65.5t-87.5 -22.5h-113l-245 1059l-230 -973q-8 -43 -35 -64.5t-86 -21.5h-106 z" />
<glyph unicode="X" horiz-adv-x="997" d="M43 25l348 667l-330 621q53 24 119 24q34 0 51.5 -13t32.5 -48l248 -496l260 553h100q52 0 52 -37q0 -29 -29 -79l-283 -521l316 -604q18 -38 18 -57q0 -35 -47 -35h-123l-282 596l-269 -555q-12 -29 -27 -39t-48 -10q-58 0 -107 33z" />
<glyph unicode="Y" horiz-adv-x="964" d="M20 1311q50 24 113 24q31 0 48.5 -11.5t27.5 -39.5l285 -643l294 692h91q26 0 36.5 -8.5t10.5 -28.5q0 -24 -25 -75l-330 -709v-481q0 -16 -17 -23.5t-69 -7.5q-54 0 -71 7.5t-17 23.5v477z" />
<glyph unicode="Z" horiz-adv-x="989" d="M70 109q0 69 47 135l561 874q27 42 27 66v10h-603q-10 35 -10 63q0 45 11 60.5t40 15.5h744q18 -31 18 -82q0 -76 -61 -168l-551 -866q-21 -33 -21 -53q0 -29 27 -29h610q9 -27 9 -61q0 -43 -11 -58.5t-39 -15.5h-694q-50 0 -77 29.5t-27 79.5z" />
<glyph unicode="[" horiz-adv-x="608" d="M145 -176v1595q0 29 12.5 41.5t41.5 12.5h331q11 -18 11 -54q0 -41 -9.5 -55t-35.5 -14h-189v-1456h223q11 -18 11 -54q0 -41 -9.5 -55t-35.5 -14h-297q-29 0 -41.5 12t-12.5 41z" />
<glyph unicode="\" horiz-adv-x="831" d="M53 1444q35 39 84 39q33 0 49 -39l592 -1610q-13 -16 -36.5 -27.5t-45.5 -11.5q-33 0 -49 37z" />
<glyph unicode="]" horiz-adv-x="608" d="M68 -176q0 41 10.5 55.5t34.5 14.5h188v1456h-223q-10 17 -10 53q0 41 10.5 55.5t34.5 14.5h299q29 0 40 -12t11 -42v-1595q0 -30 -11 -41.5t-40 -11.5h-334q-10 17 -10 53z" />
<glyph unicode="^" horiz-adv-x="880" d="M92 791l279 624q24 6 67 6q39 0 56.5 -7t25.5 -25l254 -539q14 -32 14 -51q0 -41 -126 -41l-228 528q-4 -10 -201 -485q-15 -43 -53 -43q-50 0 -88 33z" />
<glyph unicode="_" horiz-adv-x="1114" d="M127 -178q0 36 8.5 48.5t32.5 12.5h813q8 -40 8 -51q0 -35 -9.5 -48t-31.5 -13h-815q-6 30 -6 51z" />
<glyph unicode="`" horiz-adv-x="880" d="M229 1702l3 1l9 3t15 4t24.5 3t34.5 1q54 0 70 -41l111 -252q-26 -16 -80 -16q-46 0 -64 35z" />
<glyph unicode="a" horiz-adv-x="946" d="M82 231q0 275 348 275q98 0 223 -19v265q0 85 -39.5 119t-138.5 34q-35 0 -127.5 -5t-128.5 -5q-29 0 -39 17t-10 57q0 32 10 55q7 0 62.5 4t129 8t124.5 4q171 0 244 -68.5t73 -228.5v-712q0 -16 -14 -23.5t-58 -7.5t-58.5 8t-14.5 23v82q-81 -74 -143.5 -102.5 t-162.5 -28.5q-124 0 -202 66t-78 183zM250 248q0 -70 41.5 -107t118.5 -37q66 0 119 27t124 94v168q-77 15 -182 15q-121 0 -171 -40t-50 -120z" />
<glyph unicode="b" horiz-adv-x="1024" d="M139 0v1440q0 16 16 23t64 7q49 0 64.5 -7t15.5 -23v-527q47 59 114.5 94t143.5 35q174 0 273.5 -129.5t99.5 -388.5q0 -263 -113 -402.5t-287 -139.5q-82 0 -143 26.5t-113 85.5l-10 -65q-3 -16 -12.5 -22.5t-30.5 -6.5h-82zM299 211q83 -100 209 -100q118 0 188 97.5 t70 301.5q0 212 -67.5 307.5t-178.5 95.5q-106 0 -221 -139v-563z" />
<glyph unicode="c" horiz-adv-x="827" d="M94 504q0 269 107 403.5t305 134.5q47 0 134 -9t95 -9q10 -25 10 -53q0 -39 -9.5 -54.5t-37.5 -15.5q-21 0 -83 6t-99 6q-124 0 -195 -105t-71 -306q0 -393 282 -393q56 0 104.5 8.5t69.5 16.5l21 9q25 -31 25 -75q0 -38 -67.5 -62t-184.5 -24q-195 0 -300.5 129 t-105.5 393z" />
<glyph unicode="d" horiz-adv-x="1021" d="M94 500q0 259 108.5 400.5t311.5 141.5q70 0 124.5 -27.5t84.5 -60.5v486q0 16 15.5 23t64.5 7t65.5 -7t16.5 -23v-1409q0 -31 -76 -31q-42 0 -57 8t-15 23v98q-44 -62 -113 -104.5t-157 -42.5q-171 0 -272 129.5t-101 388.5zM258 502q0 -206 69 -298.5t179 -92.5 q59 0 110 34.5t107 104.5v563q-8 14 -28.5 34.5t-69.5 43t-105 22.5q-262 0 -262 -411z" />
<glyph unicode="e" horiz-adv-x="944" d="M94 514q0 258 108.5 393t295.5 135q181 0 268.5 -116.5t87.5 -352.5q0 -22 -1.5 -42t-2.5 -29l-2 -10h-594q0 -383 283 -383q69 0 125 10.5t77 21.5l21 11q31 -22 31 -76q0 -39 -69 -66.5t-206 -27.5q-204 0 -313 135.5t-109 396.5zM254 596h453q0 317 -213 317 q-106 0 -169.5 -82.5t-70.5 -234.5z" />
<glyph unicode="f" horiz-adv-x="671" d="M47 958q0 39 9.5 52.5t33.5 13.5h127v205q0 241 252 241q27 0 86 -3t66 -3q10 -17 10 -55q0 -39 -8.5 -53.5t-36.5 -14.5q-11 0 -43.5 2.5t-53.5 2.5q-49 0 -80.5 -30t-31.5 -85v-207h244q8 -20 8 -53q0 -38 -10 -52t-33 -14h-209v-874q0 -16 -16 -23.5t-64 -7.5 q-47 0 -63.5 8t-16.5 23v874h-162q-8 20 -8 53z" />
<glyph unicode="g" horiz-adv-x="1005" d="M94 -154q0 68 28 120t101 108q-55 46 -55 127q0 50 20 98t70 121q-149 85 -149 282q0 153 94.5 246.5t290.5 93.5q120 0 204 -38q44 20 117 20h121q10 -28 10 -57q0 -62 -43 -62h-82q56 -83 56 -203q0 -69 -21.5 -127.5t-66 -105.5t-120 -73.5t-175.5 -26.5 q-75 0 -144 16q-45 -73 -45 -131q0 -45 26 -67.5t85 -22.5h266q123 0 191.5 -63t68.5 -185q0 -137 -117 -226t-338 -89q-111 0 -191 20t-122.5 56t-61 77.5t-18.5 91.5zM238 -133q0 -70 62 -113t204 -43q141 0 215 53t74 132q0 135 -152 135h-268q-40 0 -58 4 q-47 -48 -62 -84t-15 -84zM266 698q0 -103 59.5 -163t168.5 -60q107 0 166 62.5t59 160.5q0 108 -60.5 168t-164.5 60q-112 0 -170 -62t-58 -166z" />
<glyph unicode="h" horiz-adv-x="1028" d="M139 31v1409q0 16 15 23t63 7q51 0 66.5 -7t15.5 -23v-578q130 180 307 180q143 0 216 -75.5t73 -239.5v-696q0 -16 -16 -23.5t-64 -7.5q-47 0 -63.5 8t-16.5 23v676q0 102 -44 154t-124 52q-70 0 -130.5 -49.5t-137.5 -158.5v-674q0 -16 -16 -23.5t-66 -7.5 q-47 0 -62.5 8t-15.5 23z" />
<glyph unicode="i" horiz-adv-x="438" d="M119 1360q0 41 29 71.5t69 30.5q41 0 71.5 -30.5t30.5 -71.5q0 -40 -30.5 -69t-71.5 -29q-40 0 -69 29t-29 69zM139 31v962q0 17 15 24t63 7q50 0 66 -7t16 -24v-962q0 -16 -16 -23.5t-66 -7.5q-47 0 -62.5 8t-15.5 23z" />
<glyph unicode="j" horiz-adv-x="438" d="M59 -342q44 60 62 112t18 130v1093q0 16 16 23.5t64 7.5q49 0 64.5 -7t15.5 -24v-1071q0 -153 -44 -235t-91 -82q-32 0 -60.5 15.5t-44.5 37.5zM121 1360q0 41 29 71.5t69 30.5q41 0 70.5 -30.5t29.5 -71.5q0 -40 -29.5 -69t-70.5 -29q-40 0 -69 29t-29 69z" />
<glyph unicode="k" horiz-adv-x="915" d="M139 31v1409q0 16 15 23t63 7q51 0 66.5 -7t15.5 -23v-1409q0 -16 -16 -23.5t-66 -7.5q-47 0 -62.5 8t-15.5 23zM352 559l332 465h104q39 0 39 -29q0 -19 -24 -55l-285 -379l356 -528q-13 -17 -44 -29t-60 -12q-25 0 -40 10t-28 37z" />
<glyph unicode="l" horiz-adv-x="479" d="M141 147v1293q0 16 15.5 23t64.5 7q50 0 66 -7t16 -23v-1288q0 -22 9.5 -31.5t33.5 -9.5l43 4q10 -35 10 -68q0 -31 -23 -45t-81 -14q-92 0 -123 34.5t-31 124.5z" />
<glyph unicode="m" horiz-adv-x="1564" d="M139 31v962q0 16 15 23.5t59 7.5t58 -7t14 -24v-143q49 80 129.5 136t179.5 56q107 0 168 -44.5t84 -137.5q26 37 52 65t64 56.5t87.5 44.5t107.5 16q141 0 208 -75t67 -240v-696q0 -15 -16.5 -23t-63.5 -8q-49 0 -65.5 8t-16.5 23v676q0 206 -156 206 q-65 0 -121.5 -42.5t-126.5 -141.5q2 -10 2 -37v-661q0 -15 -16.5 -23t-65.5 -8q-48 0 -63.5 7.5t-15.5 23.5v676q0 105 -37.5 155.5t-118.5 50.5q-69 0 -127.5 -49.5t-124.5 -148.5v-684q0 -16 -16 -23.5t-66 -7.5q-47 0 -62.5 8t-15.5 23z" />
<glyph unicode="n" horiz-adv-x="1028" d="M139 31v962q0 16 15 23.5t59 7.5t58 -7t14 -24v-151q134 200 321 200q143 0 216 -75.5t73 -239.5v-696q0 -16 -16 -23.5t-64 -7.5q-47 0 -63.5 8t-16.5 23v676q0 102 -44 154t-124 52q-70 0 -130.5 -49.5t-137.5 -158.5v-674q0 -16 -16 -23.5t-66 -7.5q-47 0 -62.5 8 t-15.5 23z" />
<glyph unicode="o" horiz-adv-x="1013" d="M92 514q0 254 112 391t304 137q193 0 303.5 -136.5t110.5 -391.5q0 -252 -111.5 -393t-302.5 -141q-190 0 -303 141t-113 393zM252 512q0 -204 68 -303.5t188 -99.5t187 99.5t67 303.5q0 207 -67 305t-187 98t-188 -98t-68 -305z" />
<glyph unicode="p" horiz-adv-x="1024" d="M139 -365v1358q0 16 15.5 23.5t60.5 7.5q43 0 56.5 -7t13.5 -24v-94q43 61 112.5 102t159.5 41q174 0 273.5 -129.5t99.5 -388.5q0 -257 -109 -399.5t-303 -142.5q-64 0 -123 25.5t-96 62.5v-435q0 -16 -15.5 -23t-64.5 -7q-48 0 -64 7t-16 23zM299 211q82 -100 209 -100 q118 0 188 97.5t70 301.5q0 212 -67.5 307.5t-178.5 95.5q-106 0 -221 -139v-563z" />
<glyph unicode="q" horiz-adv-x="1024" d="M94 500q0 258 108 400t306 142q85 0 148 -32.5t98 -77.5l20 100h31q80 0 80 -28v-1369q0 -16 -16 -23t-66 -7q-48 0 -64 7t-16 23v476q-101 -129 -252 -129q-174 0 -275.5 129.5t-101.5 388.5zM258 502q0 -206 69 -298.5t179 -92.5q59 0 110 34.5t107 104.5v563 q-44 53 -90.5 76.5t-112.5 23.5q-262 0 -262 -411z" />
<glyph unicode="r" horiz-adv-x="684" d="M139 31v962q0 16 15 23.5t59 7.5t58 -7t14 -24v-151q114 186 272 186q22 0 54 -2t34 -2q4 -24 4 -53q0 -41 -10 -57.5t-31 -16.5q-5 0 -21.5 1t-29.5 1q-65 0 -125.5 -47t-132.5 -164v-657q0 -16 -16 -23.5t-66 -7.5q-47 0 -62.5 8t-15.5 23z" />
<glyph unicode="s" d="M92 737q0 143 92.5 224t266.5 81q54 0 146 -7t105 -7q11 -22 11 -57q0 -37 -12.5 -52.5t-41.5 -15.5q-21 0 -91 5t-101 5q-96 0 -148.5 -44.5t-52.5 -127.5q0 -45 26 -77.5t67 -53t91 -39t100.5 -41.5t91.5 -53.5t67 -82.5t26 -122q0 -128 -91.5 -209t-274.5 -81 q-134 0 -202.5 26t-68.5 64q0 50 25 78q11 -5 30.5 -11.5t83 -18t128.5 -11.5q101 0 149.5 42.5t48.5 114.5q0 44 -26 77t-67.5 54.5t-92 41.5t-100.5 44.5t-91.5 55t-67.5 81.5t-26 117z" />
<glyph unicode="t" horiz-adv-x="690" d="M47 958q0 39 9.5 52.5t33.5 13.5h127v223q0 17 15 24t63 7q50 0 66 -7t16 -24v-223h258q8 -20 8 -53q0 -39 -9.5 -52.5t-33.5 -13.5h-223v-678q0 -58 29.5 -84t97.5 -26q74 0 125 22q24 -32 24 -71q0 -84 -192 -84q-129 0 -186.5 55.5t-57.5 165.5v700h-164q-6 15 -6 53z " />
<glyph unicode="u" horiz-adv-x="1001" d="M135 268v725q0 16 16.5 23.5t65.5 7.5t63.5 -7t14.5 -24v-704q0 -85 39 -129.5t112 -44.5q127 0 256 135v743q0 16 16 23.5t64 7.5q49 0 64.5 -7t15.5 -24v-962q0 -15 -15 -23t-59 -8q-42 0 -56.5 8t-14.5 23v98q-67 -75 -140 -111t-180 -36q-125 0 -193.5 71t-68.5 215z " />
<glyph unicode="v" horiz-adv-x="903" d="M61 1008q42 20 99 20t71 -51l224 -830l239 877h74q37 0 51.5 -9t14.5 -32q0 -20 -23 -104l-238 -803q-12 -38 -32.5 -57t-61.5 -19h-127z" />
<glyph unicode="w" horiz-adv-x="1390" d="M76 1012q40 16 92 16q63 0 68 -51l157 -842l209 817q41 13 98 13q47 0 68 -14t27 -44l200 -772l179 889h71q37 0 51.5 -8.5t14.5 -30.5q0 -6 -3 -22t-8.5 -46t-9.5 -51l-176 -780q-7 -44 -29.5 -65t-80.5 -21h-109l-205 795l-186 -715q-10 -44 -32 -62t-79 -18h-106z" />
<glyph unicode="x" horiz-adv-x="847" d="M49 20l268 521l-243 458q48 29 108 29q31 0 45 -10t27 -37l180 -375l178 418h109q37 0 37 -29q0 -16 -23 -63l-196 -393l241 -453q17 -39 17 -53q0 -33 -41 -33h-113l-221 467l-205 -436q-10 -24 -26.5 -32.5t-45.5 -8.5q-63 0 -96 30z" />
<glyph unicode="y" horiz-adv-x="915" d="M61 1008q45 20 99 20q60 0 76 -51l229 -834l237 881h76q37 0 52.5 -9.5t15.5 -33.5q0 -22 -21 -90l-360 -1231q-16 -55 -66 -55q-63 0 -106 30l108 355q-45 12 -65 76z" />
<glyph unicode="z" d="M72 88q0 57 39 121l405 620q29 44 29 66l-2 10h-443q-10 20 -10 53q0 38 10.5 52t34.5 14h580q8 -8 15 -29t7 -43q0 -57 -43 -118l-424 -654q-16 -21 -16 -39q0 -20 20 -20h465q9 -23 9 -53q0 -40 -9.5 -54t-33.5 -14h-539q-45 0 -69.5 24.5t-24.5 63.5z" />
<glyph unicode="{" horiz-adv-x="708" d="M74 623q0 16 1.5 29.5t2.5 18.5l2 5h45q51 0 70.5 24.5t19.5 79.5q0 63 -22.5 231.5t-22.5 245.5q0 100 59 158t185 58h215q8 -20 8 -56q0 -41 -9.5 -54t-35.5 -13h-100q-164 0 -164 -138q0 -56 21.5 -210t21.5 -224q0 -118 -84 -157q84 -41 84 -156q0 -70 -21.5 -223 t-21.5 -209q0 -68 38.5 -103.5t125.5 -35.5h137q8 -20 8 -56q0 -40 -9.5 -53.5t-35.5 -13.5h-178q-126 0 -185 57.5t-59 157.5q0 79 22.5 246.5t22.5 230.5q0 104 -84 104h-39q-18 0 -18 56z" />
<glyph unicode="|" horiz-adv-x="415" d="M145 -182v1630q0 22 62 22q63 0 63 -22v-1630q0 -23 -63 -23q-62 0 -62 23z" />
<glyph unicode="}" horiz-adv-x="708" d="M74 -174q0 41 9.5 54.5t33.5 13.5h102q162 0 162 139q0 56 -21.5 209t-21.5 223q0 118 86 158q-86 42 -86 157q0 70 21.5 223t21.5 209q0 138 -162 138h-137q-8 20 -8 55q0 40 9.5 54t33.5 14h178q126 0 186 -58.5t60 -157.5q0 -78 -23.5 -245.5t-23.5 -229.5 q0 -55 21 -79.5t65 -24.5h36q23 0 23 -55q0 -17 -2 -31t-4 -20l-2 -5h-43q-52 0 -73 -25t-21 -79q0 -62 23.5 -230t23.5 -247q0 -99 -60 -157t-186 -58h-213q-8 20 -8 55z" />
<glyph unicode="~" horiz-adv-x="911" d="M123 494q0 153 49.5 236t134.5 83q47 0 92.5 -39.5t75.5 -86.5t67 -86.5t70 -39.5q88 0 97 248h45q39 0 39 -43q0 -152 -50.5 -237t-134.5 -85q-33 0 -64.5 19t-55.5 47t-49 61t-45 61t-44 47t-47 19q-90 0 -96 -249h-45q-39 0 -39 45z" />
<glyph unicode="&#xa1;" horiz-adv-x="438" d="M121 956q0 42 25 67.5t75 25.5q49 0 73.5 -25.5t24.5 -67.5t-24.5 -67t-73.5 -25q-50 0 -75 25t-25 67zM131 -274l23 938h77q32 0 46.5 -13t15.5 -45l16 -901q-30 -20 -88 -20q-90 0 -90 41z" />
<glyph unicode="&#xa2;" horiz-adv-x="845" d="M80 596q0 215 106.5 330.5t292.5 115.5q63 0 156 -9t94 -9q8 -16 8 -53q0 -36 -9 -51t-36 -15q-16 0 -83 7.5t-111 7.5q-122 0 -191 -81.5t-69 -244.5q0 -160 75 -240t209 -80q56 0 103.5 9t67.5 17l20 9q24 -24 24 -73q0 -36 -69.5 -60t-175.5 -24q-190 0 -301 113 t-111 331zM393 -182l10 256q29 6 60 6q28 0 39.5 -7t11.5 -24v-252q-24 -12 -59 -12q-36 0 -49 8t-13 25zM393 1147v252q24 12 60 12t48.5 -8t12.5 -25l-10 -256q-31 -6 -60 -6t-40 7t-11 24z" />
<glyph unicode="&#xa3;" horiz-adv-x="1038" d="M80 612q0 56 35 56h123q-3 25 -13 93.5t-15 120t-5 103.5q0 173 102.5 267t296.5 94q67 0 155.5 -6.5t129.5 -6.5q8 -32 8 -63q0 -42 -10 -59t-41 -17q-32 0 -103 4t-116 4q-117 0 -179.5 -63t-62.5 -189q0 -32 2.5 -71.5t6 -67.5t9 -75t7.5 -68h424q16 -13 16 -50 q0 -55 -33 -55h-401v-14q0 -75 -22 -151t-44 -134.5t-22 -91.5q0 -14 1.5 -23t2.5 -11l2 -3h573q8 -28 8 -61q0 -44 -10.5 -59t-40.5 -15h-704q-17 31 -17 80q0 56 16.5 117.5t36 108.5t36 111t16.5 124v22h-154q-14 19 -14 49z" />
<glyph unicode="&#xa4;" horiz-adv-x="1155" d="M104 1161q6 25 30 45.5t50 20.5t45 -25l162 -219q82 31 174 31q107 0 197 -41l190 254q46 0 72.5 -17t26.5 -43q0 -17 -19 -39l-172 -219q129 -116 129 -313t-127 -311l197 -252q-6 -25 -30 -45.5t-50 -20.5t-45 25l-170 229q-90 -41 -199 -41q-94 0 -176 31l-178 -244 q-46 0 -72 17t-26 43q0 20 16 39l158 204q-144 115 -144 326t146 328zM293 596q0 -135 76 -211t196 -76q121 0 198 76t77 211q0 137 -77 213t-198 76q-120 0 -196 -76t-76 -213z" />
<glyph unicode="&#xa5;" horiz-adv-x="1067" d="M80 1311q46 24 113 24q31 0 48 -12t29 -43l283 -639l295 692h88q28 0 38.5 -8.5t10.5 -28.5q0 -17 -27 -79l-282 -607h223q16 -13 16 -49q0 -27 -6 -40t-24 -13h-254v-170h268q16 -16 16 -51q0 -27 -6 -40.5t-24 -13.5h-254v-202q0 -15 -17.5 -23t-70.5 -8t-70.5 8 t-17.5 23v202h-285q-16 16 -16 52q0 27 6.5 40t25.5 13h269v170h-285q-16 13 -16 49q0 27 6.5 40t25.5 13h220z" />
<glyph unicode="&#xa6;" horiz-adv-x="417" d="M147 -182v704q0 23 62 23q61 0 61 -23v-704q0 -23 -61 -23q-62 0 -62 23zM147 745v703q0 22 62 22q26 0 40 -3.5t17.5 -7.5t3.5 -11v-703q0 -12 -11.5 -18t-49.5 -6q-62 0 -62 24z" />
<glyph unicode="&#xa7;" horiz-adv-x="892" d="M104 1036q0 151 92.5 230.5t278.5 79.5q51 0 151 -7.5t130 -7.5q6 -36 6 -59q0 -31 -15 -47.5t-46 -19t-62 -0.5t-79 7t-81 5q-106 0 -160.5 -46t-54.5 -129q0 -38 28.5 -72.5t73.5 -62.5t100 -55.5t110 -58.5t100 -65.5t73.5 -82.5t28.5 -104q0 -100 -58 -167t-179 -89 q56 -27 93.5 -50t76 -57t58 -78t19.5 -98q0 -141 -94.5 -223t-273.5 -82q-143 0 -217 26t-74 72q0 47 29 72q9 -5 27 -12t82.5 -19t140.5 -12q106 0 164.5 44.5t58.5 119.5q0 40 -28.5 76.5t-74 65.5t-100.5 58.5t-110 61.5t-100.5 67t-74 83.5t-28.5 103.5q0 210 237 254 q-44 21 -74.5 38.5t-66 44t-57 53t-36 63.5t-14.5 79zM268 522q0 -54 35 -94t100 -76q222 19 222 172q0 54 -36.5 94t-103.5 76q-217 -19 -217 -172z" />
<glyph unicode="&#xa8;" horiz-adv-x="942" d="M223 1530q0 37 26.5 63.5t63.5 26.5t65 -27t28 -63t-28 -63t-65 -27t-63.5 26.5t-26.5 63.5zM537 1530q0 36 27 63t63 27q37 0 64.5 -26.5t27.5 -63.5t-27.5 -63.5t-64.5 -26.5q-36 0 -63 27t-27 63z" />
<glyph unicode="&#xa9;" horiz-adv-x="1480" d="M98 668q0 307 167.5 492.5t473.5 185.5t474.5 -185.5t168.5 -492.5q0 -200 -72.5 -352t-219.5 -240t-351 -88t-350.5 88t-218.5 239.5t-72 352.5zM217 670q0 -260 138 -415t384 -155q253 0 390 154.5t137 415.5t-137 414t-390 153q-247 0 -384.5 -154t-137.5 -413z M459 672q0 165 77 253.5t216 88.5q31 0 100 -6.5t86 -6.5q8 -16 8 -43q0 -31 -7.5 -42t-31.5 -11q-19 0 -66.5 4t-74.5 4q-188 0 -188 -243q0 -234 194 -234q44 0 85.5 8t60.5 16l20 7q6 -4 13 -21.5t7 -35.5q0 -30 -61.5 -51t-144.5 -21q-141 0 -217 83.5t-76 250.5z" />
<glyph unicode="&#xaa;" horiz-adv-x="843" d="M70 641q0 242 319 242q116 0 199 -29v221q0 86 -36 120t-122 34q-51 0 -134 -7.5t-108 -7.5q-31 0 -41 14t-10 48q0 33 8 53q19 0 128.5 9.5t166.5 9.5q158 0 224.5 -62.5t66.5 -216.5v-614q0 -27 -74 -27q-42 0 -55.5 6.5t-13.5 20.5v88q-61 -70 -124 -103.5t-145 -33.5 q-116 0 -182.5 63.5t-66.5 171.5zM207 653q0 -68 38.5 -105.5t108.5 -37.5q54 0 105 28.5t129 102.5v133q-91 27 -170 27q-211 0 -211 -148z" />
<glyph unicode="&#xab;" horiz-adv-x="1021" d="M94 434q0 33 4 49l226 338q24 37 84 37q56 0 69 -33l-262 -397l242 -365q18 -30 18 -43q0 -20 -33 -20h-92l-233 350q-23 30 -23 84zM547 434q0 1 6 49l227 338q21 37 82 37q58 0 68 -33l-260 -397l243 -365q17 -34 17 -43q0 -20 -33 -20h-90l-238 350q-22 40 -22 84z " />
<glyph unicode="&#xac;" horiz-adv-x="1185" d="M131 625q0 40 10.5 54.5t36.5 14.5h856q21 -29 21 -59v-490q0 -24 -62 -24q-38 0 -50.5 6t-12.5 18v426h-789q-10 30 -10 54z" />
<glyph unicode="&#xad;" d="M113 602q0 49 10.5 64.5t40.5 15.5h536q11 -38 11 -64q0 -45 -12 -62t-40 -17h-536q-10 35 -10 63z" />
<glyph unicode="&#xae;" horiz-adv-x="1480" d="M98 668q0 307 167.5 492.5t473.5 185.5t474.5 -185.5t168.5 -492.5q0 -200 -72.5 -352t-219.5 -240t-351 -88t-350.5 88t-218.5 239.5t-72 352.5zM217 670q0 -260 138 -415t384 -155q253 0 390 154.5t137 415.5t-137 414t-390 153q-247 0 -384.5 -154t-137.5 -413z M516 371v594q0 19 13 30.5t58.5 19t129.5 7.5q135 0 206.5 -66t71.5 -174q0 -135 -100 -188l111 -225q-11 -10 -34 -18.5t-42 -8.5t-28.5 7t-18.5 28l-86 188q-74 -13 -172 4v-198q0 -21 -54 -21q-55 0 -55 21zM625 647q38 -12 112 -12q72 0 110 37t38 104q0 70 -40.5 109 t-121.5 39q-62 0 -98 -9v-268z" />
<glyph unicode="&#xaf;" horiz-adv-x="839" d="M182 1266q0 40 10.5 54.5t36.5 14.5h420q8 -24 8 -55q0 -41 -10 -55.5t-37 -14.5h-417q-11 33 -11 56z" />
<glyph unicode="&#xb0;" horiz-adv-x="747" d="M94 1022q0 146 73 235t206 89q135 0 208.5 -88.5t73.5 -233.5q0 -152 -74 -240t-210 -88q-130 0 -203.5 89t-73.5 237zM203 1020q0 -113 43.5 -175.5t124.5 -62.5q87 0 131.5 61.5t44.5 178.5q0 113 -44 174t-130 61q-84 0 -127 -61.5t-43 -175.5z" />
<glyph unicode="&#xb1;" horiz-adv-x="966" d="M121 223q0 41 10.5 55.5t36.5 14.5h668q8 -20 8 -53q0 -42 -9.5 -56t-35.5 -14h-668q-10 30 -10 53zM121 825q0 41 10.5 55.5t36.5 14.5h250v274q0 12 13 18.5t52 6.5q66 0 66 -25v-274h287q8 -24 8 -55q0 -41 -10 -55.5t-35 -14.5h-250v-274q0 -25 -66 -25 q-39 0 -52 6.5t-13 18.5v274h-287q-10 30 -10 55z" />
<glyph unicode="&#xb2;" horiz-adv-x="817" d="M100 537q0 53 24.5 99.5t63.5 81t86.5 66.5t94.5 62.5t86 62t63.5 72t24.5 86.5q0 84 -44.5 122t-146.5 38q-31 0 -93.5 -5t-90.5 -5q-25 0 -34 14.5t-9 50.5q0 19 6 49q22 0 106 7.5t132 7.5q164 0 240.5 -67t76.5 -202q0 -57 -23.5 -107.5t-60.5 -87.5t-82 -70t-90 -61 t-82 -54.5t-60.5 -56t-23.5 -60.5q0 -8 1.5 -16t2.5 -14l2 -5h416q10 -20 10 -51q0 -58 -51 -58h-522q-23 40 -23 101z" />
<glyph unicode="&#xb3;" horiz-adv-x="819" d="M109 516q0 20 8 40.5t16 27.5q8 -5 24 -13t76.5 -21t135.5 -13q202 0 202 161q0 71 -49 107.5t-139 36.5q-28 0 -66.5 -4t-44.5 -4q-30 0 -30 32v23l215 231q35 36 47 56.5t12 44.5h-348q-29 0 -40 12.5t-11 48.5q0 26 10 51h496q31 0 43 -12.5t12 -48.5q0 -81 -82 -166 l-184 -205q32 4 55 4q117 0 184.5 -56t67.5 -161q0 -126 -83.5 -195t-254.5 -69q-138 0 -205 26t-67 66z" />
<glyph unicode="&#xb4;" horiz-adv-x="880" d="M383 1421l113 252q13 41 69 41q19 0 34.5 -1t24.5 -3t15 -4l9 -3l3 -1l-125 -262q-15 -35 -61 -35q-53 0 -82 16z" />
<glyph unicode="&#xb6;" horiz-adv-x="1091" d="M76 623q0 211 136 315t413 104q153 0 319 -18v-1266q0 -24 -63 -24q-38 0 -51 6t-13 18v1153q-104 13 -192 13v-666q-45 -18 -123 -18q-195 0 -310.5 94t-115.5 289z" />
<glyph unicode="&#xb7;" horiz-adv-x="483" d="M115 662q0 53 37.5 88.5t89.5 35.5q53 0 89 -35t36 -89q0 -53 -36 -88t-89 -35q-52 0 -89.5 35t-37.5 88z" />
<glyph unicode="&#xb8;" horiz-adv-x="991" d="M326 -274q0 26 24 38q50 -30 154 -30q127 0 127 61q0 60 -99 60h-100q-16 0 -24.5 10.5t-8.5 23.5l41 93q15 34 54 34q26 0 36 -14l-41 -90q23 2 76 2q156 0 156 -119q0 -62 -49 -98.5t-154 -36.5q-97 0 -144.5 18.5t-47.5 47.5z" />
<glyph unicode="&#xb9;" d="M113 1282q0 35 8 51q28 0 168.5 6.5t165.5 6.5q37 0 50 -8t13 -25v-768h215q8 -20 8 -49q0 -35 -8.5 -47.5t-30.5 -12.5h-573q-4 20 -4 49q0 35 8.5 47.5t30.5 12.5h211v682q-116 -8 -221 -8q-25 0 -33 13.5t-8 49.5z" />
<glyph unicode="&#xba;" horiz-adv-x="944" d="M96 887q0 212 94.5 335.5t278.5 123.5t281.5 -124t97.5 -335q0 -212 -97.5 -337.5t-281.5 -125.5q-183 0 -278 125t-95 338zM236 887q0 -168 58 -257t175 -89q118 0 179 89.5t61 256.5q0 165 -61 252.5t-179 87.5q-233 0 -233 -340z" />
<glyph unicode="&#xbb;" horiz-adv-x="1024" d="M94 33l260 397l-241 367q-17 25 -17 41q0 20 31 20h92l236 -350q22 -29 22 -82q0 -27 -6 -51l-225 -338q-23 -37 -84 -37q-58 0 -68 33zM549 33l262 397l-244 367q-18 27 -18 41q0 20 35 20h90l235 -350q23 -31 23 -82q0 -19 -4 -51l-228 -338q-26 -37 -84 -37 q-54 0 -67 33z" />
<glyph unicode="&#xbc;" horiz-adv-x="2021" d="M102 1282q0 23 7 51q29 0 169 6.5t166 6.5q37 0 50.5 -8t13.5 -25v-768h215q8 -20 8 -49q0 -34 -9 -47t-30 -13h-573q-6 30 -6 49q0 34 9 47t30 13h213v682q-124 -8 -222 -8q-25 0 -33 13.5t-8 49.5zM612 -166l590 1610q16 39 49 39q55 0 86 -39l-592 -1610 q-13 -39 -49 -39q-53 0 -84 39zM1159 240q0 31 25 82l368 577h125q46 0 63 -7.5t17 -25.5v-563h185q10 -20 10 -49q0 -59 -49 -59h-146v-166q0 -15 -15.5 -22t-58.5 -7q-42 0 -55.5 7t-13.5 22v166h-440q-15 20 -15 45zM1296 303h318v488z" />
<glyph unicode="&#xbd;" horiz-adv-x="1982" d="M96 1282q0 35 8 51q29 0 170 6.5t166 6.5q36 0 49 -8t13 -25v-768h217q6 -30 6 -49q0 -35 -8 -47.5t-29 -12.5h-573q-6 15 -6 49q0 35 8 47.5t30 12.5h213v682q-124 -8 -221 -8q-25 0 -34 14t-9 49zM606 -166l592 1610q13 39 49 39q52 0 86 -39l-592 -1610 q-13 -39 -49 -39q-55 0 -86 39zM1292 100q0 53 24.5 99.5t63.5 81t86.5 66.5t94.5 62.5t86 62t63.5 72.5t24.5 87q0 84 -44 122t-147 38q-31 0 -94 -5.5t-90 -5.5q-25 0 -34 14.5t-9 51.5q0 29 8 49q21 0 104 7t132 7q163 0 240 -66.5t77 -201.5q0 -66 -31.5 -124t-78 -96.5 t-101.5 -76.5t-101.5 -67t-78 -64t-31.5 -70q0 -28 6 -34h416q10 -30 10 -52q0 -57 -51 -57h-522q-23 40 -23 100z" />
<glyph unicode="&#xbe;" horiz-adv-x="2035" d="M98 516q0 20 8.5 40.5t16.5 27.5q8 -5 23.5 -13t76 -21t135.5 -13q203 0 203 161q0 71 -49 107.5t-139 36.5q-29 0 -67 -4t-44 -4q-31 0 -31 32v23l215 231q35 39 47.5 58.5t12.5 42.5h-348q-29 0 -40.5 12.5t-11.5 48.5q0 24 11 51h495q32 0 44 -12.5t12 -48.5 q0 -81 -82 -166l-185 -205q32 4 56 4q117 0 184.5 -56t67.5 -161q0 -126 -83.5 -195t-254.5 -69q-138 0 -205.5 26t-67.5 66zM643 -166l592 1610q13 39 49 39q53 0 84 -39l-590 -1610q-16 -39 -49 -39q-55 0 -86 39zM1174 240q0 33 24 82l369 577h125q46 0 63 -7.5t17 -25.5 v-563h186q8 -22 8 -49q0 -34 -9 -46.5t-30 -12.5h-155v-166q0 -15 -15.5 -22t-58.5 -7t-56.5 7t-13.5 22v166h-440q-14 14 -14 45zM1311 303h317v488z" />
<glyph unicode="&#xbf;" horiz-adv-x="888" d="M96 49q0 72 19.5 132.5t51 102t69.5 78.5t75.5 71t69 69.5t51 83.5t19.5 104h79q56 0 56 -55q0 -53 -18 -99t-47 -80t-64 -65.5t-70 -63.5t-64 -67t-47 -82.5t-18 -103.5q0 -122 64 -184t182 -62q42 0 139 4t117 4q28 0 39.5 -15t11.5 -59q0 -45 -10 -65q-22 0 -138.5 -6 t-177.5 -6q-191 0 -290 93t-99 271zM416 956q0 42 24.5 67.5t75.5 25.5q49 0 73.5 -25.5t24.5 -67.5t-24.5 -67t-73.5 -25q-100 0 -100 92z" />
<glyph unicode="&#xc0;" horiz-adv-x="1054" d="M31 16l405 1301q50 16 92 16q50 0 71.5 -10t29.5 -35l377 -1196q10 -36 10 -53q0 -21 -12 -30t-41 -9h-109l-127 424h-410l-116 -387q-6 -26 -21 -36.5t-47 -10.5q-70 0 -102 26zM322 1702l3 1l9 3t15 4t24.5 3t34.5 1q53 0 69 -41l111 -252q-26 -16 -80 -16 q-46 0 -64 35zM346 539h348l-172 587z" />
<glyph unicode="&#xc1;" horiz-adv-x="1054" d="M31 16l405 1301q50 16 92 16q50 0 71.5 -10t29.5 -35l377 -1196q10 -36 10 -53q0 -21 -12 -30t-41 -9h-109l-127 424h-410l-116 -387q-6 -26 -21 -36.5t-47 -10.5q-70 0 -102 26zM346 539h348l-172 587zM459 1421l112 252q13 41 70 41q19 0 34.5 -1t24.5 -3t15 -4l9 -3 l3 -1l-125 -262q-15 -35 -61 -35q-53 0 -82 16z" />
<glyph unicode="&#xc2;" horiz-adv-x="1054" d="M31 16l405 1301q50 16 92 16q50 0 71.5 -10t29.5 -35l377 -1196q10 -36 10 -53q0 -21 -12 -30t-41 -9h-109l-127 424h-410l-116 -387q-6 -26 -21 -36.5t-47 -10.5q-70 0 -102 26zM279 1421l180 287q32 6 69 6q58 0 74 -24l152 -230q10 -20 10 -28q0 -27 -51 -27h-68 l-123 231l-112 -213q-7 -24 -58 -24q-47 0 -73 22zM346 539h348l-172 587z" />
<glyph unicode="&#xc3;" horiz-adv-x="1054" d="M31 16l405 1301q50 16 92 16q50 0 71.5 -10t29.5 -35l377 -1196q10 -36 10 -53q0 -21 -12 -30t-41 -9h-109l-127 424h-410l-116 -387q-6 -26 -21 -36.5t-47 -10.5q-70 0 -102 26zM227 1444q0 124 46 180.5t120 56.5q35 0 67.5 -16.5t57.5 -40.5t48 -47.5t48.5 -40 t49.5 -16.5q39 0 60 33.5t24 121.5h45q34 0 34 -39q0 -237 -165 -237q-36 0 -69 17t-58 41t-48 48t-48 41t-48 17q-39 0 -60 -36t-24 -122h-43q-37 0 -37 39zM346 539h348l-172 587z" />
<glyph unicode="&#xc4;" horiz-adv-x="1054" d="M31 16l405 1301q50 16 92 16q50 0 71.5 -10t29.5 -35l377 -1196q10 -36 10 -53q0 -21 -12 -30t-41 -9h-109l-127 424h-410l-116 -387q-6 -26 -21 -36.5t-47 -10.5q-70 0 -102 26zM279 1497q0 37 26.5 63.5t63.5 26.5t64.5 -26.5t27.5 -63.5t-27.5 -63.5t-64.5 -26.5 t-63.5 26.5t-26.5 63.5zM346 539h348l-172 587zM592 1497q0 36 27 63t63 27q37 0 64.5 -26.5t27.5 -63.5t-27.5 -63.5t-64.5 -26.5q-36 0 -63 27t-27 63z" />
<glyph unicode="&#xc5;" horiz-adv-x="1054" d="M31 16l403 1293q-74 48 -74 143q0 81 48 127.5t120 46.5q73 0 119.5 -46.5t46.5 -127.5q0 -98 -73 -145q76 -233 212 -666.5t173 -548.5q10 -36 10 -53q0 -21 -12 -30t-41 -9h-109l-127 424h-410l-116 -387q-6 -26 -21 -36.5t-47 -10.5q-70 0 -102 26zM346 539h348 l-172 587zM455 1452q0 -41 19.5 -63.5t53.5 -22.5q33 0 54.5 23t21.5 63q0 42 -21 64t-55 22q-73 0 -73 -86z" />
<glyph unicode="&#xc6;" horiz-adv-x="1533" d="M0 18l676 1299q59 16 121 16h626q11 -38 11 -63q0 -44 -11.5 -60t-40.5 -16h-462v-487h444q8 -28 8 -58q0 -39 -10 -53t-35 -14h-407v-447h516q10 -27 10 -61q0 -43 -11 -58.5t-40 -15.5h-555q-95 0 -95 49v326h-395l-172 -340q-15 -27 -27.5 -36t-44.5 -9q-28 0 -59.5 8 t-46.5 20zM410 489h335v660z" />
<glyph unicode="&#xc7;" horiz-adv-x="954" d="M100 664q0 344 141 513t384 169q58 0 140 -6.5t105 -6.5q9 -27 9 -61q0 -43 -10.5 -60.5t-41.5 -17.5q-27 0 -90.5 4t-97.5 4q-177 0 -266.5 -130.5t-89.5 -412.5q0 -275 87.5 -401.5t258.5 -126.5q63 0 119 8.5t81 17.5l25 9q23 -32 23 -86q0 -37 -65.5 -63t-184.5 -29 l-35 -76q23 2 76 2q155 0 155 -119q0 -135 -202 -135q-97 0 -145 18.5t-48 47.5q0 26 25 38q49 -30 153 -30q127 0 127 61q0 60 -98 60h-100q-16 0 -24.5 10.5t-8.5 23.5l41 93q0 2 4 10q-220 17 -333.5 186.5t-113.5 485.5z" />
<glyph unicode="&#xc8;" horiz-adv-x="942" d="M154 49v1245q0 20 16.5 29.5t67.5 9.5h585q11 -33 11 -61q0 -45 -12 -61.5t-40 -16.5h-456v-487h442q8 -24 8 -56q0 -40 -10.5 -54.5t-34.5 -14.5h-405v-447h518q10 -20 10 -61q0 -43 -11 -58.5t-38 -15.5h-559q-92 0 -92 49zM301 1702l3 1l9 3t15 4t24.5 3t34.5 1 q54 0 70 -41l110 -252q-26 -16 -80 -16q-45 0 -63 35z" />
<glyph unicode="&#xc9;" horiz-adv-x="942" d="M154 49v1245q0 20 16.5 29.5t67.5 9.5h585q11 -33 11 -61q0 -45 -12 -61.5t-40 -16.5h-456v-487h442q8 -24 8 -56q0 -40 -10.5 -54.5t-34.5 -14.5h-405v-447h518q10 -20 10 -61q0 -43 -11 -58.5t-38 -15.5h-559q-92 0 -92 49zM416 1421l112 252q13 41 70 41q19 0 34.5 -1 t24.5 -3t15 -4l9 -3l3 -1l-125 -262q-15 -35 -61 -35q-53 0 -82 16z" />
<glyph unicode="&#xca;" horiz-adv-x="942" d="M154 49v1245q0 20 16.5 29.5t67.5 9.5h585q11 -33 11 -61q0 -45 -12 -61.5t-40 -16.5h-456v-487h442q8 -24 8 -56q0 -40 -10.5 -54.5t-34.5 -14.5h-405v-447h518q10 -20 10 -61q0 -43 -11 -58.5t-38 -15.5h-559q-92 0 -92 49zM242 1421l180 287q33 6 70 6q57 0 73 -24 l152 -230q10 -20 10 -28q0 -27 -51 -27h-68l-123 231l-112 -213q-7 -24 -58 -24q-47 0 -73 22z" />
<glyph unicode="&#xcb;" horiz-adv-x="942" d="M154 49v1245q0 20 16.5 29.5t67.5 9.5h585q11 -33 11 -61q0 -45 -12 -61.5t-40 -16.5h-456v-487h442q8 -24 8 -56q0 -40 -10.5 -54.5t-34.5 -14.5h-405v-447h518q10 -20 10 -61q0 -43 -11 -58.5t-38 -15.5h-559q-92 0 -92 49zM244 1497q0 37 26.5 63.5t63.5 26.5 t64.5 -26.5t27.5 -63.5t-27.5 -63.5t-64.5 -26.5t-63.5 26.5t-26.5 63.5zM557 1497q0 36 27 63t63 27q37 0 64.5 -26.5t27.5 -63.5t-27.5 -63.5t-64.5 -26.5q-36 0 -63 27t-27 63z" />
<glyph unicode="&#xcc;" horiz-adv-x="481" d="M35 1702l3 1l9 3t15 4t24.5 3t34.5 1q53 0 69 -41l111 -252q-26 -16 -80 -16q-45 0 -63 35zM154 31v1272q0 16 17 23t71 7q52 0 69 -7t17 -23v-1272q0 -16 -17 -23.5t-69 -7.5q-53 0 -70.5 8t-17.5 23z" />
<glyph unicode="&#xcd;" horiz-adv-x="481" d="M154 31v1272q0 16 17 23t71 7q52 0 69 -7t17 -23v-1272q0 -16 -17 -23.5t-69 -7.5q-53 0 -70.5 8t-17.5 23zM176 1421l113 252q13 41 69 41q19 0 34.5 -1t24.5 -3t15 -4l9 -3l3 -1l-125 -262q-15 -35 -61 -35q-53 0 -82 16z" />
<glyph unicode="&#xce;" horiz-adv-x="481" d="M-6 1421l180 287q33 6 70 6q57 0 73 -24l152 -230q10 -20 10 -28q0 -27 -51 -27h-68l-122 231l-113 -213q-7 -24 -57 -24q-48 0 -74 22zM154 31v1272q0 16 17 23t71 7q52 0 69 -7t17 -23v-1272q0 -16 -17 -23.5t-69 -7.5q-53 0 -70.5 8t-17.5 23z" />
<glyph unicode="&#xcf;" horiz-adv-x="481" d="M-6 1497q0 37 26.5 63.5t63.5 26.5t64.5 -26.5t27.5 -63.5t-27.5 -63.5t-64.5 -26.5t-63.5 26.5t-26.5 63.5zM154 31v1272q0 16 17 23t71 7q52 0 69 -7t17 -23v-1272q0 -16 -17 -23.5t-69 -7.5q-53 0 -70.5 8t-17.5 23zM307 1497q0 36 27 63t63 27q37 0 64.5 -26.5 t27.5 -63.5t-27.5 -63.5t-64.5 -26.5q-36 0 -63 27t-27 63z" />
<glyph unicode="&#xd0;" horiz-adv-x="1185" d="M18 629q0 63 43 63h113v559q0 31 18.5 47t86 26.5t198.5 10.5q283 0 446.5 -169t163.5 -494q0 -170 -43 -300.5t-121 -212.5t-183 -123.5t-234 -41.5q-127 0 -203 14t-102.5 35.5t-26.5 54.5v471h-135q-21 25 -21 60zM348 152q2 0 14.5 -4.5t28.5 -9t50.5 -8t78.5 -3.5 q62 0 116.5 17.5t104.5 58t86 102t57 155.5t21 212q0 139 -32 243t-89.5 165t-130 90.5t-159.5 29.5q-29 0 -52.5 -1t-37.5 -2t-25.5 -3t-16 -3.5l-9 -3t-5.5 -1.5v-494h232q20 -24 20 -59q0 -64 -43 -64h-209v-417z" />
<glyph unicode="&#xd1;" horiz-adv-x="1179" d="M154 31v1245q0 35 18.5 46t81.5 11q57 0 78.5 -11t38.5 -48l501 -1024v1053q0 16 15.5 23t62.5 7t62.5 -7t15.5 -23v-1244q0 -36 -18.5 -47.5t-79.5 -11.5q-54 0 -74 11.5t-39 49.5l-510 1045v-1075q0 -15 -16 -23t-62 -8t-60.5 7.5t-14.5 23.5zM291 1444q0 124 46 180.5 t120 56.5q35 0 67 -16.5t57 -40.5t48.5 -47.5t48.5 -40t49 -16.5q39 0 60 33.5t24 121.5h45q35 0 35 -39q0 -237 -166 -237q-36 0 -69 17t-57.5 41t-47.5 48t-48 41t-48 17q-39 0 -60 -36t-24 -122h-43q-37 0 -37 39z" />
<glyph unicode="&#xd2;" horiz-adv-x="1210" d="M100 676q0 330 136 500t368 170q231 0 368.5 -170.5t137.5 -499.5q0 -333 -138 -510.5t-368 -177.5q-231 0 -367.5 177t-136.5 511zM283 676q0 -147 24.5 -256t69.5 -172.5t101.5 -94t125.5 -30.5q68 0 124.5 30.5t102.5 94t71.5 173t25.5 255.5q0 145 -25.5 251 t-71.5 166.5t-102.5 88.5t-124.5 28q-70 0 -126 -28t-101 -88.5t-69.5 -166.5t-24.5 -251zM406 1702l3 1l9 3t15 4t24.5 3t34.5 1q53 0 69 -41l111 -252q-26 -16 -80 -16q-46 0 -64 35z" />
<glyph unicode="&#xd3;" horiz-adv-x="1210" d="M100 676q0 330 136 500t368 170q231 0 368.5 -170.5t137.5 -499.5q0 -333 -138 -510.5t-368 -177.5q-231 0 -367.5 177t-136.5 511zM283 676q0 -147 24.5 -256t69.5 -172.5t101.5 -94t125.5 -30.5q68 0 124.5 30.5t102.5 94t71.5 173t25.5 255.5q0 145 -25.5 251 t-71.5 166.5t-102.5 88.5t-124.5 28q-70 0 -126 -28t-101 -88.5t-69.5 -166.5t-24.5 -251zM522 1421l113 252q13 41 70 41q19 0 34.5 -1t24.5 -3t15 -4l9 -3l3 -1l-125 -262q-15 -35 -62 -35q-53 0 -82 16z" />
<glyph unicode="&#xd4;" horiz-adv-x="1210" d="M100 676q0 330 136 500t368 170q231 0 368.5 -170.5t137.5 -499.5q0 -333 -138 -510.5t-368 -177.5q-231 0 -367.5 177t-136.5 511zM283 676q0 -147 24.5 -256t69.5 -172.5t101.5 -94t125.5 -30.5q68 0 124.5 30.5t102.5 94t71.5 173t25.5 255.5q0 145 -25.5 251 t-71.5 166.5t-102.5 88.5t-124.5 28q-70 0 -126 -28t-101 -88.5t-69.5 -166.5t-24.5 -251zM360 1421l181 287q32 6 69 6q58 0 74 -24l152 -230q10 -20 10 -28q0 -27 -51 -27h-68l-123 231l-112 -213q-7 -24 -58 -24q-48 0 -74 22z" />
<glyph unicode="&#xd5;" horiz-adv-x="1210" d="M100 676q0 330 136 500t368 170q231 0 368.5 -170.5t137.5 -499.5q0 -333 -138 -510.5t-368 -177.5q-231 0 -367.5 177t-136.5 511zM283 676q0 -147 24.5 -256t69.5 -172.5t101.5 -94t125.5 -30.5q68 0 124.5 30.5t102.5 94t71.5 173t25.5 255.5q0 145 -25.5 251 t-71.5 166.5t-102.5 88.5t-124.5 28q-70 0 -126 -28t-101 -88.5t-69.5 -166.5t-24.5 -251zM305 1444q0 124 46 180.5t120 56.5q35 0 67 -16.5t57 -40.5t48.5 -47.5t48.5 -40t49 -16.5q39 0 60 33.5t24 121.5h45q35 0 35 -39q0 -237 -166 -237q-36 0 -69 17t-57.5 41 t-47.5 48t-48 41t-48 17q-39 0 -60 -36t-24 -122h-43q-37 0 -37 39z" />
<glyph unicode="&#xd6;" horiz-adv-x="1210" d="M100 676q0 330 136 500t368 170q231 0 368.5 -170.5t137.5 -499.5q0 -333 -138 -510.5t-368 -177.5q-231 0 -367.5 177t-136.5 511zM283 676q0 -147 24.5 -256t69.5 -172.5t101.5 -94t125.5 -30.5q68 0 124.5 30.5t102.5 94t71.5 173t25.5 255.5q0 145 -25.5 251 t-71.5 166.5t-102.5 88.5t-124.5 28q-70 0 -126 -28t-101 -88.5t-69.5 -166.5t-24.5 -251zM356 1497q0 37 26.5 63.5t63.5 26.5t65 -27t28 -63t-28 -63t-65 -27t-63.5 26.5t-26.5 63.5zM670 1497q0 36 27 63t63 27q37 0 64.5 -26.5t27.5 -63.5t-27.5 -63.5t-64.5 -26.5 q-36 0 -63 27t-27 63z" />
<glyph unicode="&#xd7;" horiz-adv-x="1021" d="M109 322q0 6 8 14l305 305l-305 307q-8 8 -8 15q0 12 33.5 45.5t45.5 33.5q11 0 17 -6l305 -307l307 307q6 6 17 6q12 0 45.5 -33.5t33.5 -45.5q0 -7 -8 -15l-307 -307l307 -305q8 -8 8 -14q0 -12 -33 -46t-46 -34q-9 0 -15 6l-309 307l-307 -307q-6 -6 -15 -6 q-13 0 -46 34t-33 46z" />
<glyph unicode="&#xd8;" horiz-adv-x="1208" d="M100 676q0 330 136 500t368 170q170 0 291 -95l109 191q17 35 45 35q35 0 63 -39l-145 -256q143 -176 143 -506q0 -333 -138 -510.5t-368 -177.5q-159 0 -272 82l-119 -209q-18 -35 -45 -35q-36 0 -64 39l156 272q-160 184 -160 539zM283 676q0 -244 67 -381l465 817 q-80 98 -211 98q-70 0 -126 -28t-101 -88.5t-69.5 -166.5t-24.5 -251zM410 205q76 -82 194 -82q68 0 124.5 30.5t102.5 94t71.5 173t25.5 255.5q0 211 -56 342z" />
<glyph unicode="&#xd9;" horiz-adv-x="1161" d="M145 438v865q0 16 17 23t69 7t69 -7t17 -23v-869q0 -154 70.5 -232.5t192.5 -78.5q118 0 191 79t73 230v871q0 16 17 23t69 7t69 -7t17 -23v-867q0 -222 -116.5 -335t-319.5 -113q-209 0 -322 112t-113 338zM383 1702l3 1l9 3t15 4t24.5 3t34.5 1q54 0 70 -41l110 -252 q-26 -16 -80 -16q-45 0 -63 35z" />
<glyph unicode="&#xda;" horiz-adv-x="1161" d="M145 438v865q0 16 17 23t69 7t69 -7t17 -23v-869q0 -154 70.5 -232.5t192.5 -78.5q118 0 191 79t73 230v871q0 16 17 23t69 7t69 -7t17 -23v-867q0 -222 -116.5 -335t-319.5 -113q-209 0 -322 112t-113 338zM506 1421l112 252q13 41 70 41q19 0 34.5 -1t24.5 -3t15 -4 l9 -3l3 -1l-125 -262q-15 -35 -61 -35q-53 0 -82 16z" />
<glyph unicode="&#xdb;" horiz-adv-x="1161" d="M145 438v865q0 16 17 23t69 7t69 -7t17 -23v-869q0 -154 70.5 -232.5t192.5 -78.5q118 0 191 79t73 230v871q0 16 17 23t69 7t69 -7t17 -23v-867q0 -222 -116.5 -335t-319.5 -113q-209 0 -322 112t-113 338zM336 1421l180 287q33 6 70 6q57 0 73 -24l152 -230 q10 -20 10 -28q0 -27 -51 -27h-68l-122 231l-113 -213q-7 -24 -57 -24q-48 0 -74 22z" />
<glyph unicode="&#xdc;" horiz-adv-x="1161" d="M145 438v865q0 16 17 23t69 7t69 -7t17 -23v-869q0 -154 70.5 -232.5t192.5 -78.5q118 0 191 79t73 230v871q0 16 17 23t69 7t69 -7t17 -23v-867q0 -222 -116.5 -335t-319.5 -113q-209 0 -322 112t-113 338zM330 1497q0 37 26.5 63.5t63.5 26.5t64.5 -26.5t27.5 -63.5 t-27.5 -63.5t-64.5 -26.5t-63.5 26.5t-26.5 63.5zM643 1497q0 36 27 63t63 27q37 0 64.5 -26.5t27.5 -63.5t-27.5 -63.5t-64.5 -26.5q-36 0 -63 27t-27 63z" />
<glyph unicode="&#xdd;" horiz-adv-x="964" d="M20 1311q50 24 113 24q31 0 48.5 -11.5t27.5 -39.5l285 -643l294 692h91q26 0 36.5 -8.5t10.5 -28.5q0 -24 -25 -75l-330 -709v-481q0 -16 -17 -23.5t-69 -7.5q-54 0 -71 7.5t-17 23.5v477zM410 1407l112 252q13 41 70 41q19 0 34.5 -1t24.5 -3t15 -4l9 -3l3 -1 l-125 -263q-15 -34 -61 -34q-53 0 -82 16z" />
<glyph unicode="&#xde;" horiz-adv-x="1040" d="M154 31v1272q0 16 17 23t71 7t70 -7t16 -23v-234q39 8 147 8q259 0 381.5 -111.5t122.5 -314.5q0 -182 -118.5 -295.5t-350.5 -113.5q-104 0 -182 20v-231q0 -16 -17 -23.5t-69 -7.5q-53 0 -70.5 8t-17.5 23zM328 387q67 -20 170 -20q150 0 225.5 75.5t75.5 206.5 q0 295 -320 295q-31 0 -57 -1.5t-42 -3.5t-26 -4t-17.5 -4.5t-8.5 -2.5v-541z" />
<glyph unicode="&#xdf;" horiz-adv-x="1114" d="M139 31v1054q0 381 404 381q186 0 291.5 -91.5t105.5 -256.5q0 -58 -21 -108.5t-51 -86.5t-60.5 -69t-51.5 -70.5t-21 -76.5q0 -28 17.5 -53.5t45.5 -46.5t61.5 -43.5t67 -50t61.5 -59.5t45.5 -78.5t17.5 -101.5q0 -142 -85.5 -217t-248.5 -75q-109 0 -174.5 27t-65.5 65 q0 46 35 71q1 -1 11 -5t18 -7t22 -8t28.5 -8.5t31.5 -7t37 -5.5t40 -2q91 0 141 42t50 126q0 37 -17.5 69.5t-46 57t-62.5 48t-68 49t-62.5 53.5t-46 66.5t-17.5 84.5q0 50 21 96.5t50.5 82t59.5 70.5t51 76.5t21 84.5q0 111 -63 170t-172 59q-240 0 -240 -284v-1022 q0 -16 -16 -23.5t-66 -7.5q-47 0 -62.5 8t-15.5 23z" />
<glyph unicode="&#xe0;" horiz-adv-x="946" d="M82 231q0 275 348 275q98 0 223 -19v265q0 85 -39.5 119t-138.5 34q-35 0 -127.5 -5t-128.5 -5q-29 0 -39 17t-10 57q0 32 10 55q7 0 62.5 4t129 8t124.5 4q171 0 244 -68.5t73 -228.5v-712q0 -16 -14 -23.5t-58 -7.5t-58.5 8t-14.5 23v82q-81 -74 -143.5 -102.5 t-162.5 -28.5q-124 0 -202 66t-78 183zM250 248q0 -70 41.5 -107t118.5 -37q66 0 119 27t124 94v168q-77 15 -182 15q-121 0 -171 -40t-50 -120zM260 1440l3 1l9 3t15 4t24.5 3t34.5 1q54 0 70 -41l110 -252q-26 -16 -80 -16q-45 0 -63 35z" />
<glyph unicode="&#xe1;" horiz-adv-x="946" d="M82 231q0 275 348 275q98 0 223 -19v265q0 85 -39.5 119t-138.5 34q-35 0 -127.5 -5t-128.5 -5q-29 0 -39 17t-10 57q0 32 10 55q7 0 62.5 4t129 8t124.5 4q171 0 244 -68.5t73 -228.5v-712q0 -16 -14 -23.5t-58 -7.5t-58.5 8t-14.5 23v82q-81 -74 -143.5 -102.5 t-162.5 -28.5q-124 0 -202 66t-78 183zM250 248q0 -70 41.5 -107t118.5 -37q66 0 119 27t124 94v168q-77 15 -182 15q-121 0 -171 -40t-50 -120zM383 1159l113 252q13 41 69 41q19 0 34.5 -1t24.5 -3t15 -4l9 -3l3 -1l-125 -262q-15 -35 -61 -35q-53 0 -82 16z" />
<glyph unicode="&#xe2;" horiz-adv-x="946" d="M82 231q0 275 348 275q98 0 223 -19v265q0 85 -39.5 119t-138.5 34q-35 0 -127.5 -5t-128.5 -5q-29 0 -39 17t-10 57q0 32 10 55q7 0 62.5 4t129 8t124.5 4q171 0 244 -68.5t73 -228.5v-712q0 -16 -14 -23.5t-58 -7.5t-58.5 8t-14.5 23v82q-81 -74 -143.5 -102.5 t-162.5 -28.5q-124 0 -202 66t-78 183zM227 1159l181 287q32 6 69 6q57 0 74 -25l151 -229q11 -22 11 -29q0 -13 -10 -19.5t-41 -6.5h-68l-123 231l-113 -213q-7 -24 -57 -24q-48 0 -74 22zM250 248q0 -70 41.5 -107t118.5 -37q66 0 119 27t124 94v168q-77 15 -182 15 q-121 0 -171 -40t-50 -120z" />
<glyph unicode="&#xe3;" horiz-adv-x="946" d="M82 231q0 275 348 275q98 0 223 -19v265q0 85 -39.5 119t-138.5 34q-35 0 -127.5 -5t-128.5 -5q-29 0 -39 17t-10 57q0 32 10 55q7 0 62.5 4t129 8t124.5 4q171 0 244 -68.5t73 -228.5v-712q0 -16 -14 -23.5t-58 -7.5t-58.5 8t-14.5 23v82q-81 -74 -143.5 -102.5 t-162.5 -28.5q-124 0 -202 66t-78 183zM162 1184q0 124 46 180.5t120 56.5q35 0 67 -16.5t57 -40.5t48.5 -47.5t48.5 -40t49 -16.5q39 0 60 33.5t24 121.5h45q35 0 35 -39q0 -237 -166 -237q-36 0 -69 17t-57.5 41t-47.5 48t-48 41t-48 17q-39 0 -60 -36t-24 -122h-43 q-37 0 -37 39zM250 248q0 -70 41.5 -107t118.5 -37q66 0 119 27t124 94v168q-77 15 -182 15q-121 0 -171 -40t-50 -120z" />
<glyph unicode="&#xe4;" horiz-adv-x="946" d="M82 231q0 275 348 275q98 0 223 -19v265q0 85 -39.5 119t-138.5 34q-35 0 -127.5 -5t-128.5 -5q-29 0 -39 17t-10 57q0 32 10 55q7 0 62.5 4t129 8t124.5 4q171 0 244 -68.5t73 -228.5v-712q0 -16 -14 -23.5t-58 -7.5t-58.5 8t-14.5 23v82q-81 -74 -143.5 -102.5 t-162.5 -28.5q-124 0 -202 66t-78 183zM221 1249q0 37 26.5 63.5t63.5 26.5t64.5 -26.5t27.5 -63.5t-27.5 -63.5t-64.5 -26.5t-63.5 26.5t-26.5 63.5zM250 248q0 -70 41.5 -107t118.5 -37q66 0 119 27t124 94v168q-77 15 -182 15q-121 0 -171 -40t-50 -120zM535 1249 q0 36 27 63t63 27q37 0 64.5 -26.5t27.5 -63.5t-27.5 -63.5t-64.5 -26.5q-36 0 -63 27t-27 63z" />
<glyph unicode="&#xe5;" horiz-adv-x="946" d="M82 231q0 275 348 275q98 0 223 -19v265q0 85 -39.5 119t-138.5 34q-35 0 -127.5 -5t-128.5 -5q-29 0 -39 17t-10 57q0 32 10 55q7 0 62.5 4t129 8t124.5 4q171 0 244 -68.5t73 -228.5v-712q0 -16 -14 -23.5t-58 -7.5t-58.5 8t-14.5 23v82q-81 -74 -143.5 -102.5 t-162.5 -28.5q-124 0 -202 66t-78 183zM250 248q0 -70 41.5 -107t118.5 -37q66 0 119 27t124 94v168q-77 15 -182 15q-121 0 -171 -40t-50 -120zM289 1313q0 81 48 127.5t120 46.5q73 0 119.5 -46.5t46.5 -127.5q0 -77 -47 -123.5t-119 -46.5q-71 0 -119.5 47t-48.5 123z M383 1313q0 -41 20 -63.5t54 -22.5q33 0 54 23t21 63q0 43 -20.5 64.5t-54.5 21.5q-74 0 -74 -86z" />
<glyph unicode="&#xe6;" horiz-adv-x="1503" d="M82 233q0 275 348 275q81 0 221 -21v265q0 90 -42.5 122.5t-135.5 32.5q-54 0 -142.5 -6t-111.5 -6q-29 0 -39 17t-10 57q0 30 10 55q8 0 125.5 8t188.5 8q115 0 179 -30t93 -97q105 129 289 129q358 0 358 -471v-79h-602q0 -383 283 -383q69 0 125.5 11.5t78.5 23.5 l21 12q29 -23 29 -78q0 -38 -70 -67t-205 -29q-236 0 -340 174q-105 -106 -180 -140t-186 -34q-135 0 -210 67.5t-75 183.5zM250 250q0 -70 40 -108t118 -38q142 0 278 154q-22 74 -29 137q-82 15 -186 15q-117 0 -169 -38.5t-52 -121.5zM811 596h453q0 317 -213 317 q-106 0 -169.5 -82.5t-70.5 -234.5z" />
<glyph unicode="&#xe7;" horiz-adv-x="827" d="M94 504q0 269 107 403.5t305 134.5q47 0 134 -9t95 -9q10 -25 10 -53q0 -39 -9.5 -54.5t-37.5 -15.5q-21 0 -83 6t-99 6q-124 0 -195 -105t-71 -306q0 -393 282 -393q56 0 104.5 8.5t69.5 16.5l21 9q25 -31 25 -75q0 -36 -59 -59.5t-163 -26.5l-30 -70q23 2 75 2 q156 0 156 -119q0 -62 -49 -98.5t-154 -36.5q-97 0 -144.5 18.5t-47.5 47.5q0 26 24 38q50 -30 154 -30q127 0 127 61q0 60 -98 60h-101q-16 0 -24 10t-8 24l41 93v2q-172 14 -264.5 143t-92.5 377z" />
<glyph unicode="&#xe8;" horiz-adv-x="944" d="M94 514q0 258 108.5 393t295.5 135q181 0 268.5 -116.5t87.5 -352.5q0 -22 -1.5 -42t-2.5 -29l-2 -10h-594q0 -383 283 -383q69 0 125 10.5t77 21.5l21 11q31 -22 31 -76q0 -39 -69 -66.5t-206 -27.5q-204 0 -313 135.5t-109 396.5zM254 596h453q0 317 -213 317 q-106 0 -169.5 -82.5t-70.5 -234.5zM276 1440l3 1l9 3t15 4t24.5 3t34.5 1q54 0 70 -41l111 -252q-26 -16 -80 -16q-46 0 -64 35z" />
<glyph unicode="&#xe9;" horiz-adv-x="944" d="M94 514q0 258 108.5 393t295.5 135q181 0 268.5 -116.5t87.5 -352.5q0 -22 -1.5 -42t-2.5 -29l-2 -10h-594q0 -383 283 -383q69 0 125 10.5t77 21.5l21 11q31 -22 31 -76q0 -39 -69 -66.5t-206 -27.5q-204 0 -313 135.5t-109 396.5zM254 596h453q0 317 -213 317 q-106 0 -169.5 -82.5t-70.5 -234.5zM385 1159l113 252q13 41 69 41q19 0 34.5 -1t24.5 -3t15 -4l9 -3l3 -1l-125 -262q-15 -35 -61 -35q-53 0 -82 16z" />
<glyph unicode="&#xea;" horiz-adv-x="944" d="M94 514q0 258 108.5 393t295.5 135q181 0 268.5 -116.5t87.5 -352.5q0 -22 -1.5 -42t-2.5 -29l-2 -10h-594q0 -383 283 -383q69 0 125 10.5t77 21.5l21 11q31 -22 31 -76q0 -39 -69 -66.5t-206 -27.5q-204 0 -313 135.5t-109 396.5zM227 1159l181 287q32 6 69 6 q57 0 74 -25l151 -229q11 -22 11 -29q0 -13 -10 -19.5t-41 -6.5h-68l-123 231l-113 -213q-7 -24 -57 -24q-48 0 -74 22zM254 596h453q0 317 -213 317q-106 0 -169.5 -82.5t-70.5 -234.5z" />
<glyph unicode="&#xeb;" horiz-adv-x="944" d="M94 514q0 258 108.5 393t295.5 135q181 0 268.5 -116.5t87.5 -352.5q0 -22 -1.5 -42t-2.5 -29l-2 -10h-594q0 -383 283 -383q69 0 125 10.5t77 21.5l21 11q31 -22 31 -76q0 -39 -69 -66.5t-206 -27.5q-204 0 -313 135.5t-109 396.5zM223 1249q0 37 26.5 63.5t63.5 26.5 t65 -27t28 -63t-28 -63t-65 -27t-63.5 26.5t-26.5 63.5zM254 596h453q0 317 -213 317q-106 0 -169.5 -82.5t-70.5 -234.5zM537 1249q0 36 27 63t63 27q37 0 64.5 -26.5t27.5 -63.5t-27.5 -63.5t-64.5 -26.5q-36 0 -63 27t-27 63z" />
<glyph unicode="&#xec;" horiz-adv-x="438" d="M20 1440l3 1l9 3t15 4t24.5 3t34.5 1q54 0 70 -41l111 -252q-26 -16 -80 -16q-46 0 -64 35zM139 31v962q0 17 15 24t63 7q50 0 66 -7t16 -24v-962q0 -16 -16 -23.5t-66 -7.5q-47 0 -62.5 8t-15.5 23z" />
<glyph unicode="&#xed;" horiz-adv-x="438" d="M139 31v962q0 17 15 24t63 7q50 0 66 -7t16 -24v-962q0 -16 -16 -23.5t-66 -7.5q-47 0 -62.5 8t-15.5 23zM154 1159l112 252q13 41 70 41q19 0 34.5 -1t24.5 -3t15 -4l9 -3l3 -1l-125 -262q-15 -35 -61 -35q-53 0 -82 16z" />
<glyph unicode="&#xee;" horiz-adv-x="438" d="M-25 1159l181 287q32 6 69 6q57 0 74 -25l152 -229q10 -20 10 -29q0 -13 -10 -19.5t-41 -6.5h-68l-123 231l-113 -213q-7 -24 -57 -24q-48 0 -74 22zM139 31v962q0 17 15 24t63 7q50 0 66 -7t16 -24v-962q0 -16 -16 -23.5t-66 -7.5q-47 0 -62.5 8t-15.5 23z" />
<glyph unicode="&#xef;" horiz-adv-x="438" d="M-27 1249q0 37 26.5 63.5t63.5 26.5t65 -27t28 -63t-28 -63t-65 -27t-63.5 26.5t-26.5 63.5zM139 31v962q0 17 15 24t63 7q50 0 66 -7t16 -24v-962q0 -16 -16 -23.5t-66 -7.5q-47 0 -62.5 8t-15.5 23zM287 1249q0 36 27 63t63 27q37 0 64.5 -26.5t27.5 -63.5t-27.5 -63.5 t-64.5 -26.5q-36 0 -63 27t-27 63z" />
<glyph unicode="&#xf0;" horiz-adv-x="1060" d="M72 426q0 185 97 284t296 99q164 0 317 -59q-4 176 -41.5 275t-108 138t-190.5 39q-41 0 -112.5 -6t-104.5 -6q-78 0 -78 78q0 15 4.5 38.5t4.5 24.5q29 0 131.5 7.5t165.5 7.5q270 0 387.5 -148t117.5 -481q0 -195 -30 -334t-89.5 -223t-142 -123t-194.5 -39 q-206 0 -318 117t-112 311zM242 426q0 -143 67.5 -221t192.5 -78q68 0 116.5 23.5t85.5 80.5t56 157.5t22 248.5q-137 61 -286 61q-130 0 -192 -67.5t-62 -204.5z" />
<glyph unicode="&#xf1;" horiz-adv-x="1028" d="M139 31v962q0 16 15 23.5t59 7.5t58 -7t14 -24v-151q134 200 321 200q143 0 216 -75.5t73 -239.5v-696q0 -16 -16 -23.5t-64 -7.5q-47 0 -63.5 8t-16.5 23v676q0 102 -44 154t-124 52q-70 0 -130.5 -49.5t-137.5 -158.5v-674q0 -16 -16 -23.5t-66 -7.5q-47 0 -62.5 8 t-15.5 23zM215 1194q0 124 46 181t120 57q42 0 82.5 -25.5t66.5 -55.5t59 -55.5t62 -25.5q39 0 60 33.5t24 121.5h45q35 0 35 -39q0 -237 -166 -237q-36 0 -69 17t-57.5 41t-47.5 48t-48 41t-48 17q-39 0 -60 -36t-24 -122h-43q-37 0 -37 39z" />
<glyph unicode="&#xf2;" horiz-adv-x="1013" d="M92 514q0 254 112 391t304 137q193 0 303.5 -136.5t110.5 -391.5q0 -252 -111.5 -393t-302.5 -141q-190 0 -303 141t-113 393zM252 512q0 -204 68 -303.5t188 -99.5t187 99.5t67 303.5q0 207 -67 305t-187 98t-188 -98t-68 -305zM299 1440l3 1l9 3t15 4t24.5 3t34.5 1 q54 0 70 -41l110 -252q-26 -16 -80 -16q-45 0 -63 35z" />
<glyph unicode="&#xf3;" horiz-adv-x="1013" d="M92 514q0 254 112 391t304 137q193 0 303.5 -136.5t110.5 -391.5q0 -252 -111.5 -393t-302.5 -141q-190 0 -303 141t-113 393zM252 512q0 -204 68 -303.5t188 -99.5t187 99.5t67 303.5q0 207 -67 305t-187 98t-188 -98t-68 -305zM436 1159l113 252q13 41 69 41 q19 0 35 -1t25 -3t15 -4l9 -3l3 -1l-125 -262q-15 -35 -62 -35q-53 0 -82 16z" />
<glyph unicode="&#xf4;" horiz-adv-x="1013" d="M92 514q0 254 112 391t304 137q193 0 303.5 -136.5t110.5 -391.5q0 -252 -111.5 -393t-302.5 -141q-190 0 -303 141t-113 393zM252 512q0 -204 68 -303.5t188 -99.5t187 99.5t67 303.5q0 207 -67 305t-187 98t-188 -98t-68 -305zM258 1159l180 287q33 6 70 6q57 0 74 -25 l151 -229q10 -20 10 -29q0 -13 -10 -19.5t-41 -6.5h-67l-123 231l-113 -213q-7 -24 -57 -24q-48 0 -74 22z" />
<glyph unicode="&#xf5;" horiz-adv-x="1013" d="M92 514q0 254 112 391t304 137q193 0 303.5 -136.5t110.5 -391.5q0 -252 -111.5 -393t-302.5 -141q-190 0 -303 141t-113 393zM207 1184q0 124 46 180.5t120 56.5q35 0 67 -16.5t57 -40.5t48.5 -47.5t48.5 -40t49 -16.5q39 0 60 33.5t24 121.5h45q35 0 35 -39 q0 -237 -166 -237q-36 0 -69 17t-57.5 41t-47.5 48t-48 41t-48 17q-39 0 -60 -36t-24 -122h-43q-37 0 -37 39zM252 512q0 -204 68 -303.5t188 -99.5t187 99.5t67 303.5q0 207 -67 305t-187 98t-188 -98t-68 -305z" />
<glyph unicode="&#xf6;" horiz-adv-x="1013" d="M92 514q0 254 112 391t304 137q193 0 303.5 -136.5t110.5 -391.5q0 -252 -111.5 -393t-302.5 -141q-190 0 -303 141t-113 393zM252 512q0 -204 68 -303.5t188 -99.5t187 99.5t67 303.5q0 207 -67 305t-187 98t-188 -98t-68 -305zM258 1249q0 37 26.5 63.5t63.5 26.5 t64.5 -26.5t27.5 -63.5t-27.5 -63.5t-64.5 -26.5t-63.5 26.5t-26.5 63.5zM571 1249q0 36 27.5 63t63.5 27q37 0 64.5 -26.5t27.5 -63.5t-27.5 -63.5t-64.5 -26.5q-36 0 -63.5 27t-27.5 63z" />
<glyph unicode="&#xf7;" horiz-adv-x="1087" d="M113 633q0 39 10 53t35 14h809q8 -24 8 -57q0 -39 -10.5 -53.5t-34.5 -14.5h-809q-8 48 -8 58zM442 223q0 42 30.5 72.5t72.5 30.5q43 0 72.5 -30t29.5 -73q0 -41 -29.5 -70.5t-72.5 -29.5q-42 0 -72.5 29.5t-30.5 70.5zM442 1055q0 42 30.5 72t72.5 30q43 0 72.5 -29.5 t29.5 -72.5q0 -41 -29.5 -71t-72.5 -30q-41 0 -72 30t-31 71z" />
<glyph unicode="&#xf8;" horiz-adv-x="1013" d="M92 514q0 254 112 391t304 137q133 0 227 -67l94 164q17 35 43 35q35 0 66 -39l-129 -228q113 -138 113 -393q0 -252 -111.5 -393t-302.5 -141q-113 0 -201 51l-102 -178q-17 -35 -43 -35q-35 0 -66 39l133 233q-137 143 -137 424zM252 512q0 -181 55 -285l359 625 q-63 63 -158 63q-120 0 -188 -98t-68 -305zM375 150q52 -41 133 -41q120 0 187 99.5t67 303.5q0 153 -39 248z" />
<glyph unicode="&#xf9;" horiz-adv-x="1001" d="M135 268v725q0 16 16.5 23.5t65.5 7.5t63.5 -7t14.5 -24v-704q0 -85 39 -129.5t112 -44.5q127 0 256 135v743q0 16 16 23.5t64 7.5q49 0 64.5 -7t15.5 -24v-962q0 -15 -15 -23t-59 -8q-42 0 -56.5 8t-14.5 23v98q-67 -75 -140 -111t-180 -36q-125 0 -193.5 71t-68.5 215z M303 1440l3 1l9 3t15 4t24.5 3t34.5 1q54 0 70 -41l110 -252q-26 -16 -80 -16q-45 0 -63 35z" />
<glyph unicode="&#xfa;" horiz-adv-x="1001" d="M135 268v725q0 16 16.5 23.5t65.5 7.5t63.5 -7t14.5 -24v-704q0 -85 39 -129.5t112 -44.5q127 0 256 135v743q0 16 16 23.5t64 7.5q49 0 64.5 -7t15.5 -24v-962q0 -15 -15 -23t-59 -8q-42 0 -56.5 8t-14.5 23v98q-67 -75 -140 -111t-180 -36q-125 0 -193.5 71t-68.5 215z M422 1159l113 252q13 41 69 41q19 0 34.5 -1t24.5 -3t15 -4l9 -3l3 -1l-125 -262q-15 -35 -61 -35q-53 0 -82 16z" />
<glyph unicode="&#xfb;" horiz-adv-x="1001" d="M135 268v725q0 16 16.5 23.5t65.5 7.5t63.5 -7t14.5 -24v-704q0 -85 39 -129.5t112 -44.5q127 0 256 135v743q0 16 16 23.5t64 7.5q49 0 64.5 -7t15.5 -24v-962q0 -15 -15 -23t-59 -8q-42 0 -56.5 8t-14.5 23v98q-67 -75 -140 -111t-180 -36q-125 0 -193.5 71t-68.5 215z M252 1159l180 287q33 6 70 6q56 0 73 -25l152 -229q10 -20 10 -29q0 -13 -10 -19.5t-41 -6.5h-68l-122 231l-113 -213q-7 -24 -57 -24q-48 0 -74 22z" />
<glyph unicode="&#xfc;" horiz-adv-x="1001" d="M135 268v725q0 16 16.5 23.5t65.5 7.5t63.5 -7t14.5 -24v-704q0 -85 39 -129.5t112 -44.5q127 0 256 135v743q0 16 16 23.5t64 7.5q49 0 64.5 -7t15.5 -24v-962q0 -15 -15 -23t-59 -8q-42 0 -56.5 8t-14.5 23v98q-67 -75 -140 -111t-180 -36q-125 0 -193.5 71t-68.5 215z M252 1249q0 37 26.5 63.5t63.5 26.5t64.5 -26.5t27.5 -63.5t-27.5 -63.5t-64.5 -26.5t-63.5 26.5t-26.5 63.5zM565 1249q0 36 27 63t63 27q37 0 65 -27t28 -63t-28 -63t-65 -27q-36 0 -63 27t-27 63z" />
<glyph unicode="&#xfd;" horiz-adv-x="915" d="M61 1008q45 20 99 20q60 0 76 -51l229 -834l237 881h76q37 0 52.5 -9.5t15.5 -33.5q0 -22 -21 -90l-360 -1231q-16 -55 -66 -55q-63 0 -106 30l108 355q-45 12 -65 76zM387 1159l113 252q13 41 69 41q19 0 34.5 -1t24.5 -3t15 -4l9 -3l3 -1l-125 -262q-15 -35 -61 -35 q-53 0 -82 16z" />
<glyph unicode="&#xfe;" horiz-adv-x="1024" d="M141 -365v1668q0 16 15 23t63 7q51 0 66.5 -7t15.5 -23v-392q41 53 107 92t151 39q172 0 272.5 -130t100.5 -388q0 -260 -108.5 -401t-315.5 -141q-42 0 -82 10.5t-62 22.5t-42 24.5t-21 13.5v-418q0 -16 -15.5 -23t-66.5 -7q-48 0 -63 7t-15 23zM301 180 q1 -1 12.5 -11.5t26 -20.5t36.5 -21.5t53.5 -19t66.5 -7.5q270 0 270 410q0 403 -256 403q-115 0 -209 -116v-617z" />
<glyph unicode="&#xff;" horiz-adv-x="915" d="M61 1008q45 20 99 20q60 0 76 -51l229 -834l237 881h76q37 0 52.5 -9.5t15.5 -33.5q0 -22 -21 -90l-360 -1231q-16 -55 -66 -55q-63 0 -106 30l108 355q-45 12 -65 76zM209 1249q0 37 26.5 63.5t63.5 26.5t64.5 -26.5t27.5 -63.5t-27.5 -63.5t-64.5 -26.5t-63.5 26.5 t-26.5 63.5zM522 1249q0 36 27 63t63 27q37 0 65 -27t28 -63t-28 -63t-65 -27q-36 0 -63 27t-27 63z" />
<glyph unicode="&#x152;" horiz-adv-x="1716" d="M100 676q0 330 136 500t368 170q110 0 201.5 -56.5t138.5 -173.5v197q0 20 68 20h594q10 -20 10 -61q0 -46 -11 -62t-40 -16h-457v-492h438q8 -24 8 -57q0 -39 -9.5 -52t-33.5 -13h-403v-445h512q8 -24 8 -61q0 -43 -10.5 -58.5t-36.5 -15.5h-561q-76 0 -76 27v202 q-47 -122 -139 -181.5t-201 -59.5q-231 0 -367.5 177t-136.5 511zM283 676q0 -147 24.5 -256t69.5 -172.5t101.5 -94t125.5 -30.5q47 0 90 14.5t86.5 53.5t75.5 99t52 159.5t20 226.5q0 146 -26 252.5t-72.5 166.5t-102.5 87.5t-123 27.5q-70 0 -126 -28t-101 -88.5 t-69.5 -166.5t-24.5 -251z" />
<glyph unicode="&#x153;" horiz-adv-x="1624" d="M92 514q0 254 112 391t304 137q254 0 332 -221q50 115 132.5 168t203.5 53q356 0 356 -471v-79h-602q0 -383 282 -383q68 0 124 11.5t78 23.5l22 12q28 -20 28 -78q0 -40 -71 -68t-193 -28q-274 0 -364 227q-45 -111 -129.5 -169t-198.5 -58q-190 0 -303 140.5 t-113 391.5zM252 512q0 -204 68 -303.5t188 -99.5q117 0 188.5 99.5t71.5 303.5q0 207 -70 305t-190 98t-188 -98t-68 -305zM930 596h452q-1 168 -56 242.5t-157 74.5q-106 0 -168 -81.5t-71 -235.5z" />
<glyph unicode="&#x178;" horiz-adv-x="964" d="M20 1311q50 24 113 24q31 0 48.5 -11.5t27.5 -39.5l285 -643l294 692h91q26 0 36.5 -8.5t10.5 -28.5q0 -24 -25 -75l-330 -709v-481q0 -16 -17 -23.5t-69 -7.5q-54 0 -71 7.5t-17 23.5v477zM229 1497q0 37 26.5 63.5t63.5 26.5t65 -27t28 -63t-28 -63t-65 -27t-63.5 26.5 t-26.5 63.5zM543 1497q0 36 27 63t63 27q37 0 64.5 -26.5t27.5 -63.5t-27.5 -63.5t-64.5 -26.5q-36 0 -63 27t-27 63z" />
<glyph unicode="&#x2c6;" horiz-adv-x="954" d="M238 1421l180 287q32 6 69 6q58 0 74 -24l152 -230q10 -20 10 -28q0 -27 -51 -27h-68l-123 231l-112 -213q-7 -24 -58 -24q-47 0 -73 22z" />
<glyph unicode="&#x2dc;" horiz-adv-x="964" d="M182 1231q0 124 46 180.5t120 56.5q35 0 67 -16.5t57 -40t48.5 -47.5t48.5 -40.5t49 -16.5q39 0 60 33.5t24 121.5h46q34 0 34 -39q0 -237 -166 -237q-36 0 -69 17t-57.5 41t-47.5 48t-48 41t-48 17q-39 0 -60 -36t-24 -122h-43q-37 0 -37 39z" />
<glyph unicode="&#x2000;" horiz-adv-x="858" />
<glyph unicode="&#x2001;" horiz-adv-x="1716" />
<glyph unicode="&#x2002;" horiz-adv-x="858" />
<glyph unicode="&#x2003;" horiz-adv-x="1716" />
<glyph unicode="&#x2004;" horiz-adv-x="572" />
<glyph unicode="&#x2005;" horiz-adv-x="429" />
<glyph unicode="&#x2006;" horiz-adv-x="286" />
<glyph unicode="&#x2007;" horiz-adv-x="286" />
<glyph unicode="&#x2008;" horiz-adv-x="214" />
<glyph unicode="&#x2009;" horiz-adv-x="343" />
<glyph unicode="&#x200a;" horiz-adv-x="95" />
<glyph unicode="&#x2010;" d="M113 602q0 49 10.5 64.5t40.5 15.5h536q11 -38 11 -64q0 -45 -12 -62t-40 -17h-536q-10 35 -10 63z" />
<glyph unicode="&#x2011;" d="M113 602q0 49 10.5 64.5t40.5 15.5h536q11 -38 11 -64q0 -45 -12 -62t-40 -17h-536q-10 35 -10 63z" />
<glyph unicode="&#x2012;" d="M113 602q0 49 10.5 64.5t40.5 15.5h536q11 -38 11 -64q0 -45 -12 -62t-40 -17h-536q-10 35 -10 63z" />
<glyph unicode="&#x2013;" horiz-adv-x="997" d="M115 606q0 62 37 62h714q19 -24 19 -54q0 -63 -37 -63h-717q-16 24 -16 55z" />
<glyph unicode="&#x2014;" horiz-adv-x="1437" d="M115 606q0 62 37 62h1155q18 -22 18 -54q0 -63 -37 -63h-1157q-16 24 -16 55z" />
<glyph unicode="&#x2018;" horiz-adv-x="446" d="M98 956q0 66 72 213q37 81 62.5 108.5t58.5 27.5q34 0 43 -21q-53 -133 -80 -233q72 -22 72 -101q0 -41 -30.5 -72.5t-82.5 -31.5q-53 0 -84 32.5t-31 77.5z" />
<glyph unicode="&#x2019;" horiz-adv-x="446" d="M121 864q53 134 80 236q-74 19 -74 98q0 41 31 73t84 32t83.5 -32.5t30.5 -78.5q0 -61 -71 -213q-38 -81 -64 -108t-59 -27q-32 0 -41 20z" />
<glyph unicode="&#x201a;" horiz-adv-x="425" d="M90 -227q53 133 80 237q-72 19 -72 99q0 42 30.5 73t82.5 31q53 0 84 -32t31 -77q0 -70 -72 -217q-36 -81 -62 -108t-59 -27q-30 0 -43 21z" />
<glyph unicode="&#x201c;" horiz-adv-x="856" d="M98 956q0 66 72 213q37 81 62.5 108.5t58.5 27.5q34 0 43 -21q-53 -133 -80 -233q72 -22 72 -101q0 -41 -30.5 -72.5t-82.5 -31.5q-53 0 -84 32.5t-31 77.5zM510 956q0 66 72 213q37 81 62.5 108.5t57.5 27.5q35 0 41 -21q-50 -133 -79 -233q73 -22 73 -101 q0 -41 -30.5 -72.5t-81.5 -31.5q-53 0 -84 32.5t-31 77.5z" />
<glyph unicode="&#x201d;" horiz-adv-x="856" d="M121 864q53 134 80 236q-74 19 -74 98q0 41 31 73t84 32t83.5 -32.5t30.5 -78.5q0 -61 -71 -213q-38 -81 -64 -108t-59 -27q-32 0 -41 20zM532 864q51 134 80 236q-37 9 -55 32t-18 66q0 41 31 73t83 32t82.5 -33t30.5 -78q0 -66 -72 -213q-36 -81 -62 -108t-59 -27 q-35 0 -41 20z" />
<glyph unicode="&#x201e;" horiz-adv-x="837" d="M90 -227q53 133 80 237q-72 19 -72 99q0 42 30.5 73t82.5 31q53 0 84 -32t31 -77q0 -70 -72 -217q-36 -81 -62 -108t-59 -27q-30 0 -43 21zM502 -227q53 133 80 237q-72 19 -72 99q0 43 30 73.5t83 30.5t83.5 -32t30.5 -77q0 -65 -71 -217q-36 -81 -62 -108t-59 -27 q-30 0 -43 21z" />
<glyph unicode="&#x2022;" horiz-adv-x="636" d="M158 662q0 67 46.5 114t112.5 47q68 0 115 -47t47 -114t-47 -113.5t-115 -46.5q-66 0 -112.5 46.5t-46.5 113.5z" />
<glyph unicode="&#x2026;" horiz-adv-x="1247" d="M100 88q0 43 30 74t71 31q43 0 73.5 -31t30.5 -74q0 -41 -30.5 -70.5t-73.5 -29.5q-41 0 -71 29.5t-30 70.5zM522 88q0 43 30 74t71 31q43 0 73.5 -31t30.5 -74q0 -41 -30.5 -70.5t-73.5 -29.5q-41 0 -71 29.5t-30 70.5zM946 88q0 43 30 74t71 31q43 0 73.5 -31t30.5 -74 q0 -41 -30.5 -70.5t-73.5 -29.5q-41 0 -71 29.5t-30 70.5z" />
<glyph unicode="&#x202f;" horiz-adv-x="343" />
<glyph unicode="&#x2039;" horiz-adv-x="567" d="M94 434q0 33 4 49l226 338q24 37 84 37q56 0 69 -33l-262 -397l242 -367q18 -26 18 -41q0 -20 -33 -20h-92l-233 350q-23 30 -23 84z" />
<glyph unicode="&#x203a;" horiz-adv-x="569" d="M94 33l260 397l-241 367q-17 25 -17 41q0 20 31 20h92l236 -350q22 -29 22 -82q0 -27 -6 -51l-225 -338q-23 -37 -84 -37q-58 0 -68 33z" />
<glyph unicode="&#x205f;" horiz-adv-x="429" />
<glyph unicode="&#x20ac;" horiz-adv-x="1128" d="M90 516q0 28 7 41.5t26 13.5h117q-2 29 -2 93q0 59 2 88h-136q-14 18 -14 49q0 29 7 42t26 13h127q37 247 171.5 368.5t340.5 121.5q58 0 140.5 -6.5t103.5 -6.5q8 -16 8 -61q0 -44 -9 -61t-40 -17q-29 0 -93 4t-96 4q-144 0 -229.5 -84t-114.5 -262h402q16 -16 16 -49 q0 -55 -33 -55h-395q-2 -31 -2 -93q0 -61 2 -88h412q16 -16 16 -49q0 -57 -33 -57h-385q29 -176 113.5 -259t222.5 -83q63 0 119 10.5t81 20.5l25 10q25 -30 25 -84q0 -39 -74 -65.5t-205 -26.5q-418 0 -489 477h-146q-14 17 -14 51z" />
<glyph unicode="&#x2122;" horiz-adv-x="1744" d="M121 1276q0 33 8 45t29 12h577q6 -24 6 -45q0 -33 -7.5 -45t-28.5 -12h-211v-672q0 -22 -62 -22q-35 0 -46 5.5t-11 16.5v672h-248q-6 30 -6 45zM840 555l47 737q0 24 12.5 32.5t56.5 8.5q48 0 64.5 -7t21.5 -28l189 -596l188 596q5 21 21.5 28t64.5 7q46 0 58 -8t14 -35 l45 -735q0 -18 -57 -18q-62 0 -62 20l-39 621l-174 -537q-6 -23 -19.5 -32t-43.5 -9q-33 0 -47.5 9t-20.5 32l-176 537l-37 -621q0 -20 -51 -20q-55 0 -55 18z" />
<glyph unicode="&#xe000;" horiz-adv-x="1024" d="M0 0v1024h1024v-1024h-1024z" />
<glyph unicode="&#xfb01;" horiz-adv-x="1144" d="M47 958q0 39 9.5 52.5t33.5 13.5h127v205q0 241 252 241q27 0 86 -3t66 -3q10 -17 10 -55q0 -39 -8.5 -53.5t-36.5 -14.5q-11 0 -43.5 2.5t-53.5 2.5q-49 0 -80.5 -30t-31.5 -85v-207h551q49 0 65.5 -7.5t16.5 -23.5v-962q0 -15 -16.5 -23t-65.5 -8q-47 0 -62.5 8 t-15.5 23v874h-473v-874q0 -16 -16 -23.5t-64 -7.5q-47 0 -63.5 8t-16.5 23v874h-162q-8 20 -8 53zM829 1360q0 41 29.5 71.5t69.5 30.5q41 0 70.5 -30.5t29.5 -71.5q0 -40 -29.5 -69t-70.5 -29q-40 0 -69.5 29t-29.5 69z" />
<glyph unicode="&#xfb02;" horiz-adv-x="1183" d="M47 958q0 39 9.5 52.5t33.5 13.5h127v205q0 241 252 241q27 0 86 -3t66 -3q10 -17 10 -55q0 -39 -8.5 -53.5t-36.5 -14.5q-11 0 -43.5 2.5t-53.5 2.5q-49 0 -80.5 -30t-31.5 -85v-207h244q8 -20 8 -53q0 -38 -10 -52t-33 -14h-209v-874q0 -16 -16 -23.5t-64 -7.5 q-47 0 -63.5 8t-16.5 23v874h-162q-8 20 -8 53zM846 160v1280q0 17 14.5 23.5t63.5 6.5q50 0 66 -7t16 -23v-1264q0 -34 15 -49.5t50 -15.5q16 0 30 2.5t21 4.5l6 3q11 -5 11 -70q0 -63 -125 -63q-95 0 -131.5 41t-36.5 131z" />
<glyph unicode="&#xfb03;" horiz-adv-x="1658" d="M47 958q0 39 9.5 52.5t33.5 13.5h127v205q0 241 252 241q27 0 86 -3t66 -3q10 -17 10 -55q0 -39 -8.5 -53.5t-36.5 -14.5q-11 0 -43.5 2.5t-53.5 2.5q-49 0 -80.5 -30t-31.5 -85v-207h397v242q0 241 252 241q25 0 84 -3t68 -3q10 -25 10 -55q0 -38 -9 -53t-36 -15 q-12 0 -44 2t-52 2q-50 0 -81.5 -29.5t-31.5 -84.5v-244h508q49 0 64.5 -7t15.5 -24v-962q0 -16 -16 -23.5t-64 -7.5q-47 0 -63.5 8t-16.5 23v874h-428v-874q0 -15 -16.5 -23t-65.5 -8q-47 0 -62.5 8t-15.5 23v874h-397v-874q0 -16 -16 -23.5t-64 -7.5q-47 0 -63.5 8 t-16.5 23v874h-162q-8 20 -8 53zM1343 1360q0 42 29 72t70 30t69.5 -30t28.5 -72q0 -40 -28.5 -69t-69.5 -29t-70 29t-29 69z" />
<glyph unicode="&#xfb04;" horiz-adv-x="1703" d="M47 958q0 39 9.5 52.5t33.5 13.5h127v205q0 241 252 241q27 0 86 -3t66 -3q10 -17 10 -55q0 -39 -8.5 -53.5t-36.5 -14.5q-11 0 -43.5 2.5t-53.5 2.5q-49 0 -80.5 -30t-31.5 -85v-207h397v242q0 241 252 241q25 0 84 -3t68 -3q10 -25 10 -55q0 -38 -9 -53t-36 -15 q-12 0 -44 2t-52 2q-50 0 -81.5 -29.5t-31.5 -84.5v-244h242q8 -20 8 -53q0 -39 -9.5 -52.5t-33.5 -13.5h-207v-874q0 -15 -16.5 -23t-65.5 -8q-47 0 -62.5 8t-15.5 23v874h-397v-874q0 -16 -16 -23.5t-64 -7.5q-47 0 -63.5 8t-16.5 23v874h-162q-8 20 -8 53zM1366 160v1280 q0 16 15 23t63 7q51 0 66.5 -7t15.5 -23v-1264q0 -65 65 -65q16 0 30.5 2.5t20.5 4.5l7 3q12 -6 12 -70q0 -63 -127 -63q-94 0 -131 41t-37 131z" />
</font>
</defs>
</svg>
